<svg xmlns="http://www.w3.org/2000/svg" width="1200" height="1037" style="background: #fafafa; font-family: 'Comic Sans MS', 'Chalkboard SE', cursive, sans-serif;">
<text x="600.0" y="32" text-anchor="middle" font-size="20" font-weight="bold" fill="#333">express — dependency tree</text>
<path d="M600,81 C600,144 306,144 306,207" fill="none" stroke="#ddd" stroke-width="1" opacity="0.5"/>
<path d="M600,81 C600,220 557,220 557,359" fill="none" stroke="#ddd" stroke-width="1" opacity="0.5"/>
<path d="M600,81 C600,182 380,182 380,283" fill="none" stroke="#ddd" stroke-width="1" opacity="0.5"/>
<path d="M600,81 C600,106 732,106 732,131" fill="none" stroke="#ddd" stroke-width="1" opacity="0.5"/>
<path d="M600,81 C600,144 560,144 560,207" fill="none" stroke="#ddd" stroke-width="1" opacity="0.5"/>
<path d="M600,81 C600,106 1102,106 1102,131" fill="none" stroke="#ddd" stroke-width="1" opacity="0.5"/>
<path d="M600,81 C600,182 994,182 994,283" fill="none" stroke="#ddd" stroke-width="1" opacity="0.5"/>
<path d="M600,81 C600,182 458,182 458,283" fill="none" stroke="#ddd" stroke-width="1" opacity="0.5"/>
<path d="M600,81 C600,106 434,106 434,131" fill="none" stroke="#ddd" stroke-width="1" opacity="0.5"/>
<path d="M600,81 C600,106 904,106 904,131" fill="none" stroke="#ddd" stroke-width="1" opacity="0.5"/>
<path d="M600,81 C600,106 108,106 108,131" fill="none" stroke="#ddd" stroke-width="1" opacity="0.5"/>
<path d="M600,81 C600,144 399,144 399,207" fill="none" stroke="#ddd" stroke-width="1" opacity="0.5"/>
<path d="M600,81 C600,144 650,144 650,207" fill="none" stroke="#ddd" stroke-width="1" opacity="0.5"/>
<path d="M600,81 C600,220 478,220 478,359" fill="none" stroke="#ddd" stroke-width="1" opacity="0.5"/>
<path d="M600,81 C600,182 1080,182 1080,283" fill="none" stroke="#ddd" stroke-width="1" opacity="0.5"/>
<path d="M600,81 C600,182 228,182 228,283" fill="none" stroke="#ddd" stroke-width="1" opacity="0.5"/>
<path d="M600,81 C600,106 804,106 804,131" fill="none" stroke="#ddd" stroke-width="1" opacity="0.5"/>
<path d="M600,81 C600,106 221,106 221,131" fill="none" stroke="#ddd" stroke-width="1" opacity="0.5"/>
<path d="M600,81 C600,182 1152,182 1152,283" fill="none" stroke="#ddd" stroke-width="1" opacity="0.5"/>
<path d="M600,81 C600,182 546,182 546,283" fill="none" stroke="#ddd" stroke-width="1" opacity="0.5"/>
<path d="M600,81 C600,182 846,182 846,283" fill="none" stroke="#ddd" stroke-width="1" opacity="0.5"/>
<path d="M600,81 C600,182 66,182 66,283" fill="none" stroke="#ddd" stroke-width="1" opacity="0.5"/>
<path d="M600,81 C600,106 595,106 595,131" fill="none" stroke="#ddd" stroke-width="1" opacity="0.5"/>
<path d="M600,81 C600,182 754,182 754,283" fill="none" stroke="#ddd" stroke-width="1" opacity="0.5"/>
<path d="M600,81 C600,106 1012,106 1012,131" fill="none" stroke="#ddd" stroke-width="1" opacity="0.5"/>
<path d="M600,81 C600,106 520,106 520,131" fill="none" stroke="#ddd" stroke-width="1" opacity="0.5"/>
<path d="M600,81 C600,106 670,106 670,131" fill="none" stroke="#ddd" stroke-width="1" opacity="0.5"/>
<path d="M600,81 C600,106 332,106 332,131" fill="none" stroke="#ddd" stroke-width="1" opacity="0.5"/>
<path d="M732,157 C732,182 722,182 722,207" fill="none" stroke="#ddd" stroke-width="1" opacity="0.5"/>
<path d="M560,233 C560,258 994,258 994,283" fill="none" stroke="#ddd" stroke-width="1" opacity="0.5"/>
<path d="M560,233 C560,258 1080,258 1080,283" fill="none" stroke="#ddd" stroke-width="1" opacity="0.5"/>
<path d="M560,233 C560,258 1152,258 1152,283" fill="none" stroke="#ddd" stroke-width="1" opacity="0.5"/>
<path d="M560,233 C560,258 380,258 380,283" fill="none" stroke="#ddd" stroke-width="1" opacity="0.5"/>
<path d="M560,233 C560,258 458,258 458,283" fill="none" stroke="#ddd" stroke-width="1" opacity="0.5"/>
<path d="M560,233 C560,258 546,258 546,283" fill="none" stroke="#ddd" stroke-width="1" opacity="0.5"/>
<path d="M560,233 C560,258 228,258 228,283" fill="none" stroke="#ddd" stroke-width="1" opacity="0.5"/>
<path d="M560,233 C560,296 862,296 862,359" fill="none" stroke="#ddd" stroke-width="1" opacity="0.5"/>
<path d="M560,233 C560,258 846,258 846,283" fill="none" stroke="#ddd" stroke-width="1" opacity="0.5"/>
<path d="M560,233 C560,258 754,258 754,283" fill="none" stroke="#ddd" stroke-width="1" opacity="0.5"/>
<path d="M560,233 C560,296 478,296 478,359" fill="none" stroke="#ddd" stroke-width="1" opacity="0.5"/>
<path d="M306,233 C306,258 140,258 140,283" fill="none" stroke="#ddd" stroke-width="1" opacity="0.5"/>
<path d="M994,309 C994,334 862,334 862,359" fill="none" stroke="#ddd" stroke-width="1" opacity="0.5"/>
<path d="M904,157 C904,220 994,220 994,283" fill="none" stroke="#ddd" stroke-width="1" opacity="0.5"/>
<path d="M904,157 C904,258 557,258 557,359" fill="none" stroke="#ddd" stroke-width="1" opacity="0.5"/>
<path d="M904,157 C904,182 905,182 905,207" fill="none" stroke="#ddd" stroke-width="1" opacity="0.5"/>
<path d="M904,157 C904,182 650,182 650,207" fill="none" stroke="#ddd" stroke-width="1" opacity="0.5"/>
<path d="M904,157 C904,182 966,182 966,207" fill="none" stroke="#ddd" stroke-width="1" opacity="0.5"/>
<path d="M108,157 C108,220 228,220 228,283" fill="none" stroke="#ddd" stroke-width="1" opacity="0.5"/>
<path d="M108,157 C108,182 234,182 234,207" fill="none" stroke="#ddd" stroke-width="1" opacity="0.5"/>
<path d="M399,233 C399,258 66,258 66,283" fill="none" stroke="#ddd" stroke-width="1" opacity="0.5"/>
<path d="M399,233 C399,258 680,258 680,283" fill="none" stroke="#ddd" stroke-width="1" opacity="0.5"/>
<path d="M399,233 C399,258 228,258 228,283" fill="none" stroke="#ddd" stroke-width="1" opacity="0.5"/>
<path d="M804,157 C804,182 783,182 783,207" fill="none" stroke="#ddd" stroke-width="1" opacity="0.5"/>
<path d="M804,157 C804,182 844,182 844,207" fill="none" stroke="#ddd" stroke-width="1" opacity="0.5"/>
<path d="M228,309 C228,334 399,334 399,359" fill="none" stroke="#ddd" stroke-width="1" opacity="0.5"/>
<path d="M546,309 C546,334 557,334 557,359" fill="none" stroke="#ddd" stroke-width="1" opacity="0.5"/>
<path d="M546,309 C546,334 618,334 618,359" fill="none" stroke="#ddd" stroke-width="1" opacity="0.5"/>
<path d="M546,309 C546,334 679,334 679,359" fill="none" stroke="#ddd" stroke-width="1" opacity="0.5"/>
<path d="M546,309 C546,334 478,334 478,359" fill="none" stroke="#ddd" stroke-width="1" opacity="0.5"/>
<path d="M546,309 C546,334 740,334 740,359" fill="none" stroke="#ddd" stroke-width="1" opacity="0.5"/>
<path d="M846,309 C846,334 923,334 923,359" fill="none" stroke="#ddd" stroke-width="1" opacity="0.5"/>
<path d="M595,157 C595,220 994,220 994,283" fill="none" stroke="#ddd" stroke-width="1" opacity="0.5"/>
<path d="M595,157 C595,220 1080,220 1080,283" fill="none" stroke="#ddd" stroke-width="1" opacity="0.5"/>
<path d="M595,157 C595,220 1152,220 1152,283" fill="none" stroke="#ddd" stroke-width="1" opacity="0.5"/>
<path d="M595,157 C595,220 846,220 846,283" fill="none" stroke="#ddd" stroke-width="1" opacity="0.5"/>
<path d="M595,157 C595,182 650,182 650,207" fill="none" stroke="#ddd" stroke-width="1" opacity="0.5"/>
<path d="M595,157 C595,258 478,258 478,359" fill="none" stroke="#ddd" stroke-width="1" opacity="0.5"/>
<path d="M221,157 C221,220 316,220 316,283" fill="none" stroke="#ddd" stroke-width="1" opacity="0.5"/>
<path d="M221,157 C221,220 66,220 66,283" fill="none" stroke="#ddd" stroke-width="1" opacity="0.5"/>
<path d="M221,157 C221,220 994,220 994,283" fill="none" stroke="#ddd" stroke-width="1" opacity="0.5"/>
<path d="M221,157 C221,220 546,220 546,283" fill="none" stroke="#ddd" stroke-width="1" opacity="0.5"/>
<path d="M221,157 C221,220 622,220 622,283" fill="none" stroke="#ddd" stroke-width="1" opacity="0.5"/>
<path d="M221,157 C221,220 846,220 846,283" fill="none" stroke="#ddd" stroke-width="1" opacity="0.5"/>
<path d="M221,157 C221,182 306,182 306,207" fill="none" stroke="#ddd" stroke-width="1" opacity="0.5"/>
<path d="M221,157 C221,182 481,182 481,207" fill="none" stroke="#ddd" stroke-width="1" opacity="0.5"/>
<path d="M221,157 C221,182 399,182 399,207" fill="none" stroke="#ddd" stroke-width="1" opacity="0.5"/>
<path d="M1012,157 C1012,220 1080,220 1080,283" fill="none" stroke="#ddd" stroke-width="1" opacity="0.5"/>
<path d="M1012,157 C1012,220 1152,220 1152,283" fill="none" stroke="#ddd" stroke-width="1" opacity="0.5"/>
<path d="M1012,157 C1012,182 650,182 650,207" fill="none" stroke="#ddd" stroke-width="1" opacity="0.5"/>
<path d="M1012,157 C1012,182 560,182 560,207" fill="none" stroke="#ddd" stroke-width="1" opacity="0.5"/>
<path d="M140,309 C140,600 570,600 570,891" fill="none" stroke="#ddd" stroke-width="1" opacity="0.5"/>
<path d="M140,309 C140,410 630,410 630,511" fill="none" stroke="#ddd" stroke-width="1" opacity="0.5"/>
<path d="M140,309 C140,334 277,334 277,359" fill="none" stroke="#ddd" stroke-width="1" opacity="0.5"/>
<path d="M140,309 C140,372 600,372 600,435" fill="none" stroke="#ddd" stroke-width="1" opacity="0.5"/>
<path d="M140,309 C140,334 338,334 338,359" fill="none" stroke="#ddd" stroke-width="1" opacity="0.5"/>
<path d="M481,233 C481,258 316,258 316,283" fill="none" stroke="#ddd" stroke-width="1" opacity="0.5"/>
<path d="M481,233 C481,258 922,258 922,283" fill="none" stroke="#ddd" stroke-width="1" opacity="0.5"/>
<path d="M481,233 C481,258 622,258 622,283" fill="none" stroke="#ddd" stroke-width="1" opacity="0.5"/>
<path d="M481,233 C481,258 546,258 546,283" fill="none" stroke="#ddd" stroke-width="1" opacity="0.5"/>
<path d="M622,309 C622,334 801,334 801,359" fill="none" stroke="#ddd" stroke-width="1" opacity="0.5"/>
<path d="M338,385 C338,448 570,448 570,511" fill="none" stroke="#ddd" stroke-width="1" opacity="0.5"/>
<path d="M338,385 C338,638 570,638 570,891" fill="none" stroke="#ddd" stroke-width="1" opacity="0.5"/>
<path d="M338,385 C338,486 600,486 600,587" fill="none" stroke="#ddd" stroke-width="1" opacity="0.5"/>
<path d="M338,385 C338,448 630,448 630,511" fill="none" stroke="#ddd" stroke-width="1" opacity="0.5"/>
<path d="M338,385 C338,410 600,410 600,435" fill="none" stroke="#ddd" stroke-width="1" opacity="0.5"/>
<path d="M600,461 C600,486 570,486 570,511" fill="none" stroke="#ddd" stroke-width="1" opacity="0.5"/>
<path d="M600,461 C600,676 570,676 570,891" fill="none" stroke="#ddd" stroke-width="1" opacity="0.5"/>
<path d="M600,461 C600,524 600,524 600,587" fill="none" stroke="#ddd" stroke-width="1" opacity="0.5"/>
<path d="M600,461 C600,486 630,486 630,511" fill="none" stroke="#ddd" stroke-width="1" opacity="0.5"/>
<path d="M277,385 C277,638 570,638 570,891" fill="none" stroke="#ddd" stroke-width="1" opacity="0.5"/>
<path d="M277,385 C277,448 630,448 630,511" fill="none" stroke="#ddd" stroke-width="1" opacity="0.5"/>
<path d="M570,537 C570,676 570,676 570,815" fill="none" stroke="#ddd" stroke-width="1" opacity="0.5"/>
<path d="M570,537 C570,562 600,562 600,587" fill="none" stroke="#ddd" stroke-width="1" opacity="0.5"/>
<path d="M600,613 C600,714 630,714 630,815" fill="none" stroke="#ddd" stroke-width="1" opacity="0.5"/>
<path d="M600,613 C600,638 661,638 661,663" fill="none" stroke="#ddd" stroke-width="1" opacity="0.5"/>
<path d="M600,613 C600,752 570,752 570,891" fill="none" stroke="#ddd" stroke-width="1" opacity="0.5"/>
<path d="M600,613 C600,638 539,638 539,663" fill="none" stroke="#ddd" stroke-width="1" opacity="0.5"/>
<path d="M600,613 C600,638 600,638 600,663" fill="none" stroke="#ddd" stroke-width="1" opacity="0.5"/>
<path d="M600,613 C600,752 630,752 630,891" fill="none" stroke="#ddd" stroke-width="1" opacity="0.5"/>
<path d="M600,613 C600,676 570,676 570,739" fill="none" stroke="#ddd" stroke-width="1" opacity="0.5"/>
<path d="M600,613 C600,638 722,638 722,663" fill="none" stroke="#ddd" stroke-width="1" opacity="0.5"/>
<path d="M600,613 C600,638 478,638 478,663" fill="none" stroke="#ddd" stroke-width="1" opacity="0.5"/>
<path d="M600,613 C600,714 570,714 570,815" fill="none" stroke="#ddd" stroke-width="1" opacity="0.5"/>
<path d="M661,689 C661,790 630,790 630,891" fill="none" stroke="#ddd" stroke-width="1" opacity="0.5"/>
<path d="M570,765 C570,828 570,828 570,891" fill="none" stroke="#ddd" stroke-width="1" opacity="0.5"/>
<path d="M539,689 C539,714 630,714 630,739" fill="none" stroke="#ddd" stroke-width="1" opacity="0.5"/>
<path d="M539,689 C539,714 570,714 570,739" fill="none" stroke="#ddd" stroke-width="1" opacity="0.5"/>
<path d="M570,841 C570,866 570,866 570,891" fill="none" stroke="#ddd" stroke-width="1" opacity="0.5"/>
<path d="M570,841 C570,866 630,866 630,891" fill="none" stroke="#ddd" stroke-width="1" opacity="0.5"/>
<path d="M630,765 C630,790 570,790 570,815" fill="none" stroke="#ddd" stroke-width="1" opacity="0.5"/>
<path d="M630,765 C630,828 570,828 570,891" fill="none" stroke="#ddd" stroke-width="1" opacity="0.5"/>
<path d="M630,765 C630,790 630,790 630,815" fill="none" stroke="#ddd" stroke-width="1" opacity="0.5"/>
<rect x="510.0" y="55.0" width="180" height="26" rx="2" ry="2" fill="#2e7d32" stroke="#222" stroke-width="0.8"/>
<text x="600.0" y="69.0" text-anchor="middle" dominant-baseline="middle" font-size="10" fill="#fff">express</text>
<rect x="59.0" y="131.0" width="97" height="26" rx="2" ry="2" fill="#2e7d32" stroke="#222" stroke-width="0.8"/>
<text x="107.5" y="145.0" text-anchor="middle" dominant-baseline="middle" font-size="9" fill="#fff">accepts</text>
<rect x="162.0" y="131.0" width="118" height="26" rx="2" ry="2" fill="#2e7d32" stroke="#222" stroke-width="0.8"/>
<text x="221.0" y="145.0" text-anchor="middle" dominant-baseline="middle" font-size="9" fill="#fff">body-parser</text>
<rect x="286.0" y="131.0" width="91" height="26" rx="2" ry="2" fill="#2e7d32" stroke="#222" stroke-width="0.8"/>
<text x="331.5" y="145.0" text-anchor="middle" dominant-baseline="middle" font-size="9" fill="#fff">content-dis..</text>
<rect x="383.0" y="131.0" width="103" height="26" rx="2" ry="2" fill="#558b2f" stroke="#222" stroke-width="0.8"/>
<text x="434.5" y="145.0" text-anchor="middle" dominant-baseline="middle" font-size="9" fill="#fff">cookie</text>
<rect x="492.0" y="131.0" width="55" height="26" rx="2" ry="2" fill="#d84315" stroke="#222" stroke-width="0.8"/>
<text x="519.5" y="145.0" text-anchor="middle" dominant-baseline="middle" font-size="7" fill="#fff">cooki..</text>
<rect x="553.0" y="131.0" width="84" height="26" rx="2" ry="2" fill="#2e7d32" stroke="#222" stroke-width="0.8"/>
<text x="595.0" y="145.0" text-anchor="middle" dominant-baseline="middle" font-size="9" fill="#fff">finalhandler</text>
<rect x="643.0" y="131.0" width="55" height="26" rx="2" ry="2" fill="#d84315" stroke="#222" stroke-width="0.8"/>
<text x="670.5" y="145.0" text-anchor="middle" dominant-baseline="middle" font-size="7" fill="#fff">merge..</text>
<rect x="704.0" y="131.0" width="55" height="26" rx="2" ry="2" fill="#d84315" stroke="#222" stroke-width="0.8"/>
<text x="731.5" y="145.0" text-anchor="middle" dominant-baseline="middle" font-size="7" fill="#fff">once</text>
<rect x="765.0" y="131.0" width="77" height="26" rx="2" ry="2" fill="#558b2f" stroke="#222" stroke-width="0.8"/>
<text x="803.5" y="145.0" text-anchor="middle" dominant-baseline="middle" font-size="9" fill="#fff">proxy-addr</text>
<rect x="848.0" y="131.0" width="113" height="26" rx="2" ry="2" fill="#2e7d32" stroke="#222" stroke-width="0.8"/>
<text x="904.5" y="145.0" text-anchor="middle" dominant-baseline="middle" font-size="9" fill="#fff">router</text>
<rect x="967.0" y="131.0" width="91" height="26" rx="2" ry="2" fill="#2e7d32" stroke="#222" stroke-width="0.8"/>
<text x="1012.5" y="145.0" text-anchor="middle" dominant-baseline="middle" font-size="9" fill="#fff">serve-static</text>
<rect x="1064.0" y="131.0" width="77" height="26" rx="2" ry="2" fill="#558b2f" stroke="#222" stroke-width="0.8"/>
<text x="1102.5" y="145.0" text-anchor="middle" dominant-baseline="middle" font-size="9" fill="#fff">vary</text>
<rect x="206.5" y="207.0" width="55" height="26" rx="2" ry="2" fill="#9e9e9e" stroke="#222" stroke-width="0.8"/>
<text x="234.0" y="221.0" text-anchor="middle" dominant-baseline="middle" font-size="7" fill="#fff">negot..</text>
<rect x="267.5" y="207.0" width="77" height="26" rx="2" ry="2" fill="#558b2f" stroke="#222" stroke-width="0.8"/>
<text x="306.0" y="221.0" text-anchor="middle" dominant-baseline="middle" font-size="9" fill="#fff">qs</text>
<rect x="350.5" y="207.0" width="97" height="26" rx="2" ry="2" fill="#2e7d32" stroke="#222" stroke-width="0.8"/>
<text x="399.0" y="221.0" text-anchor="middle" dominant-baseline="middle" font-size="9" fill="#fff">type-is</text>
<rect x="453.5" y="207.0" width="55" height="26" rx="2" ry="2" fill="#9e9e9e" stroke="#222" stroke-width="0.8"/>
<text x="481.0" y="221.0" text-anchor="middle" dominant-baseline="middle" font-size="7" fill="#fff">raw-b..</text>
<rect x="514.5" y="207.0" width="91" height="26" rx="2" ry="2" fill="#2e7d32" stroke="#222" stroke-width="0.8"/>
<text x="560.0" y="221.0" text-anchor="middle" dominant-baseline="middle" font-size="9" fill="#fff">send</text>
<rect x="611.5" y="207.0" width="77" height="26" rx="2" ry="2" fill="#558b2f" stroke="#222" stroke-width="0.8"/>
<text x="650.0" y="221.0" text-anchor="middle" dominant-baseline="middle" font-size="9" fill="#fff">parseurl</text>
<rect x="694.5" y="207.0" width="55" height="26" rx="2" ry="2" fill="#9e9e9e" stroke="#222" stroke-width="0.8"/>
<text x="722.0" y="221.0" text-anchor="middle" dominant-baseline="middle" font-size="7" fill="#fff">wrappy</text>
<rect x="755.5" y="207.0" width="55" height="26" rx="2" ry="2" fill="#9e9e9e" stroke="#222" stroke-width="0.8"/>
<text x="783.0" y="221.0" text-anchor="middle" dominant-baseline="middle" font-size="7" fill="#fff">forwa..</text>
<rect x="816.5" y="207.0" width="55" height="26" rx="2" ry="2" fill="#9e9e9e" stroke="#222" stroke-width="0.8"/>
<text x="844.0" y="221.0" text-anchor="middle" dominant-baseline="middle" font-size="7" fill="#fff">ipadd..</text>
<rect x="877.5" y="207.0" width="55" height="26" rx="2" ry="2" fill="#9e9e9e" stroke="#222" stroke-width="0.8"/>
<text x="905.0" y="221.0" text-anchor="middle" dominant-baseline="middle" font-size="7" fill="#fff">is-pr..</text>
<rect x="938.5" y="207.0" width="55" height="26" rx="2" ry="2" fill="#9e9e9e" stroke="#222" stroke-width="0.8"/>
<text x="966.0" y="221.0" text-anchor="middle" dominant-baseline="middle" font-size="7" fill="#fff">path-..</text>
<rect x="22.5" y="283.0" width="86" height="26" rx="2" ry="2" fill="#558b2f" stroke="#222" stroke-width="0.8"/>
<text x="65.5" y="297.0" text-anchor="middle" dominant-baseline="middle" font-size="9" fill="#fff">content-type</text>
<rect x="114.5" y="283.0" width="52" height="26" rx="2" ry="2" fill="#9e9e9e" stroke="#222" stroke-width="0.8"/>
<text x="140.5" y="297.0" text-anchor="middle" dominant-baseline="middle" font-size="7" fill="#fff">side-..</text>
<rect x="172.5" y="283.0" width="112" height="26" rx="2" ry="2" fill="#2e7d32" stroke="#222" stroke-width="0.8"/>
<text x="228.5" y="297.0" text-anchor="middle" dominant-baseline="middle" font-size="9" fill="#fff">mime-types</text>
<rect x="290.5" y="283.0" width="52" height="26" rx="2" ry="2" fill="#9e9e9e" stroke="#222" stroke-width="0.8"/>
<text x="316.5" y="297.0" text-anchor="middle" dominant-baseline="middle" font-size="7" fill="#fff">bytes</text>
<rect x="348.5" y="283.0" width="63" height="26" rx="2" ry="2" fill="#f57f17" stroke="#222" stroke-width="0.8"/>
<text x="380.0" y="297.0" text-anchor="middle" dominant-baseline="middle" font-size="9" fill="#fff">etag</text>
<rect x="417.5" y="283.0" width="80" height="26" rx="2" ry="2" fill="#2e7d32" stroke="#222" stroke-width="0.8"/>
<text x="457.5" y="297.0" text-anchor="middle" dominant-baseline="middle" font-size="9" fill="#fff">fresh</text>
<rect x="503.5" y="283.0" width="86" height="26" rx="2" ry="2" fill="#558b2f" stroke="#222" stroke-width="0.8"/>
<text x="546.5" y="297.0" text-anchor="middle" dominant-baseline="middle" font-size="9" fill="#fff">http-errors</text>
<rect x="595.5" y="283.0" width="52" height="26" rx="2" ry="2" fill="#9e9e9e" stroke="#222" stroke-width="0.8"/>
<text x="621.5" y="297.0" text-anchor="middle" dominant-baseline="middle" font-size="7" fill="#fff">iconv..</text>
<rect x="653.5" y="283.0" width="52" height="26" rx="2" ry="2" fill="#9e9e9e" stroke="#222" stroke-width="0.8"/>
<text x="679.5" y="297.0" text-anchor="middle" dominant-baseline="middle" font-size="7" fill="#fff">media..</text>
<rect x="711.5" y="283.0" width="86" height="26" rx="2" ry="2" fill="#2e7d32" stroke="#222" stroke-width="0.8"/>
<text x="754.5" y="297.0" text-anchor="middle" dominant-baseline="middle" font-size="9" fill="#fff">range-parser</text>
<rect x="803.5" y="283.0" width="86" height="26" rx="2" ry="2" fill="#2e7d32" stroke="#222" stroke-width="0.8"/>
<text x="846.5" y="297.0" text-anchor="middle" dominant-baseline="middle" font-size="9" fill="#fff">on-finished</text>
<rect x="895.5" y="283.0" width="52" height="26" rx="2" ry="2" fill="#9e9e9e" stroke="#222" stroke-width="0.8"/>
<text x="921.5" y="297.0" text-anchor="middle" dominant-baseline="middle" font-size="7" fill="#fff">unpipe</text>
<rect x="953.5" y="283.0" width="80" height="26" rx="2" ry="2" fill="#558b2f" stroke="#222" stroke-width="0.8"/>
<text x="993.5" y="297.0" text-anchor="middle" dominant-baseline="middle" font-size="9" fill="#fff">debug</text>
<rect x="1039.5" y="283.0" width="80" height="26" rx="2" ry="2" fill="#558b2f" stroke="#222" stroke-width="0.8"/>
<text x="1079.5" y="297.0" text-anchor="middle" dominant-baseline="middle" font-size="9" fill="#fff">encodeurl</text>
<rect x="1125.5" y="283.0" width="52" height="26" rx="2" ry="2" fill="#c62828" stroke="#222" stroke-width="0.8"/>
<text x="1151.5" y="297.0" text-anchor="middle" dominant-baseline="middle" font-size="7" fill="#fff">escap..</text>
<rect x="249.5" y="359.0" width="55" height="26" rx="2" ry="2" fill="#9e9e9e" stroke="#222" stroke-width="0.8"/>
<text x="277.0" y="373.0" text-anchor="middle" dominant-baseline="middle" font-size="7" fill="#fff">side-..</text>
<rect x="310.5" y="359.0" width="55" height="26" rx="2" ry="2" fill="#9e9e9e" stroke="#222" stroke-width="0.8"/>
<text x="338.0" y="373.0" text-anchor="middle" dominant-baseline="middle" font-size="7" fill="#fff">side-..</text>
<rect x="371.5" y="359.0" width="55" height="26" rx="2" ry="2" fill="#9e9e9e" stroke="#222" stroke-width="0.8"/>
<text x="399.0" y="373.0" text-anchor="middle" dominant-baseline="middle" font-size="7" fill="#fff">mime-db</text>
<rect x="432.5" y="359.0" width="91" height="26" rx="2" ry="2" fill="#558b2f" stroke="#222" stroke-width="0.8"/>
<text x="478.0" y="373.0" text-anchor="middle" dominant-baseline="middle" font-size="9" fill="#fff">statuses</text>
<rect x="529.5" y="359.0" width="55" height="26" rx="2" ry="2" fill="#c62828" stroke="#222" stroke-width="0.8"/>
<text x="557.0" y="373.0" text-anchor="middle" dominant-baseline="middle" font-size="7" fill="#fff">depd</text>
<rect x="590.5" y="359.0" width="55" height="26" rx="2" ry="2" fill="#9e9e9e" stroke="#222" stroke-width="0.8"/>
<text x="618.0" y="373.0" text-anchor="middle" dominant-baseline="middle" font-size="7" fill="#fff">inher..</text>
<rect x="651.5" y="359.0" width="55" height="26" rx="2" ry="2" fill="#9e9e9e" stroke="#222" stroke-width="0.8"/>
<text x="679.0" y="373.0" text-anchor="middle" dominant-baseline="middle" font-size="7" fill="#fff">setpr..</text>
<rect x="712.5" y="359.0" width="55" height="26" rx="2" ry="2" fill="#9e9e9e" stroke="#222" stroke-width="0.8"/>
<text x="740.0" y="373.0" text-anchor="middle" dominant-baseline="middle" font-size="7" fill="#fff">toide..</text>
<rect x="773.5" y="359.0" width="55" height="26" rx="2" ry="2" fill="#9e9e9e" stroke="#222" stroke-width="0.8"/>
<text x="801.0" y="373.0" text-anchor="middle" dominant-baseline="middle" font-size="7" fill="#fff">safer..</text>
<rect x="834.5" y="359.0" width="55" height="26" rx="2" ry="2" fill="#9e9e9e" stroke="#222" stroke-width="0.8"/>
<text x="862.0" y="373.0" text-anchor="middle" dominant-baseline="middle" font-size="7" fill="#fff">ms</text>
<rect x="895.5" y="359.0" width="55" height="26" rx="2" ry="2" fill="#9e9e9e" stroke="#222" stroke-width="0.8"/>
<text x="923.0" y="373.0" text-anchor="middle" dominant-baseline="middle" font-size="7" fill="#fff">ee-fi..</text>
<rect x="572.5" y="435.0" width="55" height="26" rx="2" ry="2" fill="#9e9e9e" stroke="#222" stroke-width="0.8"/>
<text x="600.0" y="449.0" text-anchor="middle" dominant-baseline="middle" font-size="7" fill="#fff">side-..</text>
<rect x="542.0" y="511.0" width="55" height="26" rx="2" ry="2" fill="#9e9e9e" stroke="#222" stroke-width="0.8"/>
<text x="569.5" y="525.0" text-anchor="middle" dominant-baseline="middle" font-size="7" fill="#fff">call-..</text>
<rect x="603.0" y="511.0" width="55" height="26" rx="2" ry="2" fill="#9e9e9e" stroke="#222" stroke-width="0.8"/>
<text x="630.5" y="525.0" text-anchor="middle" dominant-baseline="middle" font-size="7" fill="#fff">objec..</text>
<rect x="572.5" y="587.0" width="55" height="26" rx="2" ry="2" fill="#9e9e9e" stroke="#222" stroke-width="0.8"/>
<text x="600.0" y="601.0" text-anchor="middle" dominant-baseline="middle" font-size="7" fill="#fff">get-i..</text>
<rect x="450.5" y="663.0" width="55" height="26" rx="2" ry="2" fill="#9e9e9e" stroke="#222" stroke-width="0.8"/>
<text x="478.0" y="677.0" text-anchor="middle" dominant-baseline="middle" font-size="7" fill="#fff">es-de..</text>
<rect x="511.5" y="663.0" width="55" height="26" rx="2" ry="2" fill="#9e9e9e" stroke="#222" stroke-width="0.8"/>
<text x="539.0" y="677.0" text-anchor="middle" dominant-baseline="middle" font-size="7" fill="#fff">get-p..</text>
<rect x="572.5" y="663.0" width="55" height="26" rx="2" ry="2" fill="#9e9e9e" stroke="#222" stroke-width="0.8"/>
<text x="600.0" y="677.0" text-anchor="middle" dominant-baseline="middle" font-size="7" fill="#fff">has-s..</text>
<rect x="633.5" y="663.0" width="55" height="26" rx="2" ry="2" fill="#9e9e9e" stroke="#222" stroke-width="0.8"/>
<text x="661.0" y="677.0" text-anchor="middle" dominant-baseline="middle" font-size="7" fill="#fff">hasown</text>
<rect x="694.5" y="663.0" width="55" height="26" rx="2" ry="2" fill="#9e9e9e" stroke="#222" stroke-width="0.8"/>
<text x="722.0" y="677.0" text-anchor="middle" dominant-baseline="middle" font-size="7" fill="#fff">math-..</text>
<rect x="542.0" y="739.0" width="55" height="26" rx="2" ry="2" fill="#9e9e9e" stroke="#222" stroke-width="0.8"/>
<text x="569.5" y="753.0" text-anchor="middle" dominant-baseline="middle" font-size="7" fill="#fff">es-ob..</text>
<rect x="603.0" y="739.0" width="55" height="26" rx="2" ry="2" fill="#9e9e9e" stroke="#222" stroke-width="0.8"/>
<text x="630.5" y="753.0" text-anchor="middle" dominant-baseline="middle" font-size="7" fill="#fff">dunde..</text>
<rect x="542.0" y="815.0" width="55" height="26" rx="2" ry="2" fill="#9e9e9e" stroke="#222" stroke-width="0.8"/>
<text x="569.5" y="829.0" text-anchor="middle" dominant-baseline="middle" font-size="7" fill="#fff">call-..</text>
<rect x="603.0" y="815.0" width="55" height="26" rx="2" ry="2" fill="#9e9e9e" stroke="#222" stroke-width="0.8"/>
<text x="630.5" y="829.0" text-anchor="middle" dominant-baseline="middle" font-size="7" fill="#fff">gopd</text>
<rect x="542.0" y="891.0" width="55" height="26" rx="2" ry="2" fill="#9e9e9e" stroke="#222" stroke-width="0.8"/>
<text x="569.5" y="905.0" text-anchor="middle" dominant-baseline="middle" font-size="7" fill="#fff">es-er..</text>
<rect x="603.0" y="891.0" width="55" height="26" rx="2" ry="2" fill="#9e9e9e" stroke="#222" stroke-width="0.8"/>
<text x="630.5" y="905.0" text-anchor="middle" dominant-baseline="middle" font-size="7" fill="#fff">funct..</text>
<text x="600.0" y="987" text-anchor="middle" font-size="13" fill="#555" font-style="italic">65 packages in the dependency tree</text>
<text x="600.0" y="1009" text-anchor="middle" font-size="9" fill="#bbb">generated by ossuary — inspired by xkcd.com/2347</text>
</svg>