<svg xmlns="http://www.w3.org/2000/svg" width="1200" height="572" style="background: #fafafa; font-family: 'Comic Sans MS', 'Chalkboard SE', cursive, sans-serif;">
<defs><marker id="arr" markerWidth="10" markerHeight="7" refX="10" refY="3.5" orient="auto" markerUnits="strokeWidth"><polygon points="0 0, 10 3.5, 0 7" fill="#1a237e"/></marker></defs>
<text x="600.0" y="32" text-anchor="middle" font-size="20" font-weight="bold" fill="#333">express</text>
<rect x="525.0" y="50.0" width="150" height="32" rx="2" ry="2" fill="#2e7d32" stroke="#222" stroke-width="1"/>
<text x="600.0" y="67.0" text-anchor="middle" dominant-baseline="middle" font-size="10" fill="#fff">express</text>
<rect x="212.0" y="86.0" width="39" height="32" rx="2" ry="2" fill="#d84315" stroke="#222" stroke-width="1"/>
<text x="231.5" y="103.0" text-anchor="middle" dominant-baseline="middle" font-size="6" fill="#fff">once</text>
<rect x="254.0" y="86.0" width="56" height="32" rx="2" ry="2" fill="#558b2f" stroke="#222" stroke-width="1"/>
<text x="282.0" y="103.0" text-anchor="middle" dominant-baseline="middle" font-size="7" fill="#fff">vary</text>
<rect x="313.0" y="86.0" width="74" height="32" rx="2" ry="2" fill="#558b2f" stroke="#222" stroke-width="1"/>
<text x="350.0" y="103.0" text-anchor="middle" dominant-baseline="middle" font-size="9" fill="#fff">cookie</text>
<rect x="390.0" y="86.0" width="87" height="32" rx="2" ry="2" fill="#2e7d32" stroke="#222" stroke-width="1"/>
<text x="433.5" y="103.0" text-anchor="middle" dominant-baseline="middle" font-size="9" fill="#fff">router</text>
<rect x="480.0" y="86.0" width="74" height="32" rx="2" ry="2" fill="#2e7d32" stroke="#222" stroke-width="1"/>
<text x="517.0" y="103.0" text-anchor="middle" dominant-baseline="middle" font-size="9" fill="#fff">accepts</text>
<rect x="557.0" y="86.0" width="56" height="32" rx="2" ry="2" fill="#558b2f" stroke="#222" stroke-width="1"/>
<text x="585.0" y="103.0" text-anchor="middle" dominant-baseline="middle" font-size="7" fill="#fff">proxy-addr</text>
<rect x="616.0" y="86.0" width="91" height="32" rx="2" ry="2" fill="#2e7d32" stroke="#222" stroke-width="1"/>
<text x="661.5" y="103.0" text-anchor="middle" dominant-baseline="middle" font-size="9" fill="#fff">body-parser</text>
<rect x="710.0" y="86.0" width="56" height="32" rx="2" ry="2" fill="#2e7d32" stroke="#222" stroke-width="1"/>
<text x="738.0" y="98.8" text-anchor="middle" dominant-baseline="middle" font-size="7" fill="#fff">finalh</text>
<text x="738.0" y="106.5" text-anchor="middle" dominant-baseline="middle" font-size="7" fill="#fff">andler</text>
<rect x="769.0" y="86.0" width="63" height="32" rx="2" ry="2" fill="#2e7d32" stroke="#222" stroke-width="1"/>
<text x="800.5" y="103.0" text-anchor="middle" dominant-baseline="middle" font-size="7" fill="#fff">serve-static</text>
<rect x="835.0" y="86.0" width="39" height="32" rx="2" ry="2" fill="#d84315" stroke="#222" stroke-width="1"/>
<text x="854.5" y="99.3" text-anchor="middle" dominant-baseline="middle" font-size="6" fill="#fff">cookie-</text>
<text x="854.5" y="105.9" text-anchor="middle" dominant-baseline="middle" font-size="6" fill="#fff">signature</text>
<rect x="877.0" y="86.0" width="39" height="32" rx="2" ry="2" fill="#d84315" stroke="#222" stroke-width="1"/>
<text x="896.5" y="99.3" text-anchor="middle" dominant-baseline="middle" font-size="6" fill="#fff">merge-</text>
<text x="896.5" y="105.9" text-anchor="middle" dominant-baseline="middle" font-size="6" fill="#fff">descriptors</text>
<rect x="919.0" y="86.0" width="69" height="32" rx="2" ry="2" fill="#558b2f" stroke="#222" stroke-width="1"/>
<text x="953.5" y="98.8" text-anchor="middle" dominant-baseline="middle" font-size="7" fill="#fff">content-</text>
<text x="953.5" y="106.5" text-anchor="middle" dominant-baseline="middle" font-size="7" fill="#fff">disposition</text>
<rect x="155.5" y="122.0" width="39" height="32" rx="2" ry="2" fill="#d84315" stroke="#222" stroke-width="1"/>
<text x="175.0" y="139.0" text-anchor="middle" dominant-baseline="middle" font-size="6" fill="#fff">wrappy</text>
<rect x="357.5" y="122.0" width="39" height="32" rx="2" ry="2" fill="#d84315" stroke="#222" stroke-width="1"/>
<text x="377.0" y="135.3" text-anchor="middle" dominant-baseline="middle" font-size="6" fill="#fff">is-</text>
<text x="377.0" y="141.9" text-anchor="middle" dominant-baseline="middle" font-size="6" fill="#fff">promise</text>
<rect x="399.5" y="122.0" width="74" height="32" rx="2" ry="2" fill="#2e7d32" stroke="#222" stroke-width="1"/>
<text x="436.5" y="133.9" text-anchor="middle" dominant-baseline="middle" font-size="9" fill="#fff">path-to-</text>
<text x="436.5" y="143.8" text-anchor="middle" dominant-baseline="middle" font-size="9" fill="#fff">regexp</text>
<rect x="491.5" y="122.0" width="56" height="32" rx="2" ry="2" fill="#558b2f" stroke="#222" stroke-width="1"/>
<text x="519.5" y="139.0" text-anchor="middle" dominant-baseline="middle" font-size="7" fill="#fff">negotiator</text>
<rect x="565.5" y="122.0" width="49" height="32" rx="2" ry="2" fill="#f57f17" stroke="#222" stroke-width="1"/>
<text x="590.0" y="139.0" text-anchor="middle" dominant-baseline="middle" font-size="6" fill="#fff">forwarded</text>
<rect x="617.5" y="122.0" width="49" height="32" rx="2" ry="2" fill="#c62828" stroke="#222" stroke-width="1"/>
<text x="642.0" y="139.0" text-anchor="middle" dominant-baseline="middle" font-size="6" fill="#fff">ipaddr.js</text>
<rect x="684.5" y="122.0" width="56" height="32" rx="2" ry="2" fill="#558b2f" stroke="#222" stroke-width="1"/>
<text x="712.5" y="139.0" text-anchor="middle" dominant-baseline="middle" font-size="7" fill="#fff">qs</text>
<rect x="743.5" y="122.0" width="74" height="32" rx="2" ry="2" fill="#2e7d32" stroke="#222" stroke-width="1"/>
<text x="780.5" y="139.0" text-anchor="middle" dominant-baseline="middle" font-size="9" fill="#fff">type-is</text>
<rect x="820.5" y="122.0" width="56" height="32" rx="2" ry="2" fill="#558b2f" stroke="#222" stroke-width="1"/>
<text x="848.5" y="139.0" text-anchor="middle" dominant-baseline="middle" font-size="7" fill="#fff">parseurl</text>
<rect x="894.5" y="122.0" width="63" height="32" rx="2" ry="2" fill="#558b2f" stroke="#222" stroke-width="1"/>
<text x="926.0" y="139.0" text-anchor="middle" dominant-baseline="middle" font-size="7" fill="#fff">raw-body</text>
<rect x="975.5" y="122.0" width="69" height="32" rx="2" ry="2" fill="#2e7d32" stroke="#222" stroke-width="1"/>
<text x="1010.0" y="139.0" text-anchor="middle" dominant-baseline="middle" font-size="7" fill="#fff">send</text>
<rect x="97.5" y="158.0" width="69" height="32" rx="2" ry="2" fill="#2e7d32" stroke="#222" stroke-width="1"/>
<text x="132.0" y="175.0" text-anchor="middle" dominant-baseline="middle" font-size="7" fill="#fff">content-type</text>
<rect x="169.5" y="158.0" width="63" height="32" rx="2" ry="2" fill="#558b2f" stroke="#222" stroke-width="1"/>
<text x="201.0" y="175.0" text-anchor="middle" dominant-baseline="middle" font-size="7" fill="#fff">debug</text>
<rect x="250.5" y="158.0" width="39" height="32" rx="2" ry="2" fill="#f57f17" stroke="#222" stroke-width="1"/>
<text x="270.0" y="171.3" text-anchor="middle" dominant-baseline="middle" font-size="6" fill="#fff">side-</text>
<text x="270.0" y="177.9" text-anchor="middle" dominant-baseline="middle" font-size="6" fill="#fff">channel</text>
<rect x="307.5" y="158.0" width="91" height="32" rx="2" ry="2" fill="#2e7d32" stroke="#222" stroke-width="1"/>
<text x="353.0" y="175.0" text-anchor="middle" dominant-baseline="middle" font-size="9" fill="#fff">mime-types</text>
<rect x="401.5" y="158.0" width="69" height="32" rx="2" ry="2" fill="#2e7d32" stroke="#222" stroke-width="1"/>
<text x="436.0" y="175.0" text-anchor="middle" dominant-baseline="middle" font-size="7" fill="#fff">on-finished</text>
<rect x="488.5" y="158.0" width="56" height="32" rx="2" ry="2" fill="#f57f17" stroke="#222" stroke-width="1"/>
<text x="516.5" y="175.0" text-anchor="middle" dominant-baseline="middle" font-size="7" fill="#fff">media-typer</text>
<rect x="562.5" y="158.0" width="63" height="32" rx="2" ry="2" fill="#558b2f" stroke="#222" stroke-width="1"/>
<text x="594.0" y="175.0" text-anchor="middle" dominant-baseline="middle" font-size="7" fill="#fff">encodeurl</text>
<rect x="628.5" y="158.0" width="39" height="32" rx="2" ry="2" fill="#c62828" stroke="#222" stroke-width="1"/>
<text x="648.0" y="171.3" text-anchor="middle" dominant-baseline="middle" font-size="6" fill="#fff">escape-</text>
<text x="648.0" y="177.9" text-anchor="middle" dominant-baseline="middle" font-size="6" fill="#fff">html</text>
<rect x="685.5" y="158.0" width="39" height="32" rx="2" ry="2" fill="#d84315" stroke="#222" stroke-width="1"/>
<text x="705.0" y="175.0" text-anchor="middle" dominant-baseline="middle" font-size="6" fill="#fff">bytes</text>
<rect x="727.5" y="158.0" width="56" height="32" rx="2" ry="2" fill="#f57f17" stroke="#222" stroke-width="1"/>
<text x="755.5" y="175.0" text-anchor="middle" dominant-baseline="middle" font-size="7" fill="#fff">iconv-lite</text>
<rect x="786.5" y="158.0" width="69" height="32" rx="2" ry="2" fill="#558b2f" stroke="#222" stroke-width="1"/>
<text x="821.0" y="175.0" text-anchor="middle" dominant-baseline="middle" font-size="7" fill="#fff">http-errors</text>
<rect x="858.5" y="158.0" width="49" height="32" rx="2" ry="2" fill="#f57f17" stroke="#222" stroke-width="1"/>
<text x="883.0" y="175.0" text-anchor="middle" dominant-baseline="middle" font-size="6" fill="#fff">etag</text>
<rect x="910.5" y="158.0" width="63" height="32" rx="2" ry="2" fill="#2e7d32" stroke="#222" stroke-width="1"/>
<text x="942.0" y="175.0" text-anchor="middle" dominant-baseline="middle" font-size="7" fill="#fff">fresh</text>
<rect x="976.5" y="158.0" width="69" height="32" rx="2" ry="2" fill="#2e7d32" stroke="#222" stroke-width="1"/>
<text x="1011.0" y="175.0" text-anchor="middle" dominant-baseline="middle" font-size="7" fill="#fff">range-parser</text>
<rect x="1063.5" y="158.0" width="39" height="32" rx="2" ry="2" fill="#d84315" stroke="#222" stroke-width="1"/>
<text x="1083.0" y="175.0" text-anchor="middle" dominant-baseline="middle" font-size="6" fill="#fff">unpipe</text>
<rect x="231.3" y="194.0" width="39" height="32" rx="2" ry="2" fill="#d84315" stroke="#222" stroke-width="1"/>
<text x="250.8" y="207.3" text-anchor="middle" dominant-baseline="middle" font-size="6" fill="#fff">side-</text>
<text x="250.8" y="213.9" text-anchor="middle" dominant-baseline="middle" font-size="6" fill="#fff">channel-list</text>
<rect x="273.3" y="194.0" width="39" height="32" rx="2" ry="2" fill="#d84315" stroke="#222" stroke-width="1"/>
<text x="292.8" y="207.3" text-anchor="middle" dominant-baseline="middle" font-size="6" fill="#fff">side-channel-</text>
<text x="292.8" y="213.9" text-anchor="middle" dominant-baseline="middle" font-size="6" fill="#fff">weakmap</text>
<rect x="330.3" y="194.0" width="128" height="32" rx="2" ry="2" fill="#2e7d32" stroke="#222" stroke-width="1"/>
<text x="394.3" y="211.0" text-anchor="middle" dominant-baseline="middle" font-size="10" fill="#fff">mime-db</text>
<rect x="476.3" y="194.0" width="39" height="32" rx="2" ry="2" fill="#c62828" stroke="#222" stroke-width="1"/>
<text x="495.8" y="211.0" text-anchor="middle" dominant-baseline="middle" font-size="6" fill="#fff">ee-first</text>
<rect x="551.8" y="194.0" width="69" height="32" rx="2" ry="2" fill="#d84315" stroke="#222" stroke-width="1"/>
<text x="586.2" y="211.0" text-anchor="middle" dominant-baseline="middle" font-size="7" fill="#fff">ms</text>
<rect x="638.8" y="194.0" width="39" height="32" rx="2" ry="2" fill="#c62828" stroke="#222" stroke-width="1"/>
<text x="658.2" y="211.0" text-anchor="middle" dominant-baseline="middle" font-size="6" fill="#fff">depd</text>
<rect x="716.8" y="194.0" width="39" height="32" rx="2" ry="2" fill="#c62828" stroke="#222" stroke-width="1"/>
<text x="736.2" y="207.3" text-anchor="middle" dominant-baseline="middle" font-size="6" fill="#fff">safer-</text>
<text x="736.2" y="213.9" text-anchor="middle" dominant-baseline="middle" font-size="6" fill="#fff">buffer</text>
<rect x="773.8" y="194.0" width="69" height="32" rx="2" ry="2" fill="#558b2f" stroke="#222" stroke-width="1"/>
<text x="808.2" y="211.0" text-anchor="middle" dominant-baseline="middle" font-size="7" fill="#fff">statuses</text>
<rect x="845.8" y="194.0" width="39" height="32" rx="2" ry="2" fill="#558b2f" stroke="#222" stroke-width="1"/>
<text x="865.2" y="211.0" text-anchor="middle" dominant-baseline="middle" font-size="6" fill="#fff">inherits</text>
<rect x="887.8" y="194.0" width="39" height="32" rx="2" ry="2" fill="#d84315" stroke="#222" stroke-width="1"/>
<text x="907.2" y="207.3" text-anchor="middle" dominant-baseline="middle" font-size="6" fill="#fff">setprot</text>
<text x="907.2" y="213.9" text-anchor="middle" dominant-baseline="middle" font-size="6" fill="#fff">otypeof</text>
<rect x="929.8" y="194.0" width="39" height="32" rx="2" ry="2" fill="#d84315" stroke="#222" stroke-width="1"/>
<text x="949.2" y="207.3" text-anchor="middle" dominant-baseline="middle" font-size="6" fill="#fff">toiden</text>
<text x="949.2" y="213.9" text-anchor="middle" dominant-baseline="middle" font-size="6" fill="#fff">tifier</text>
<rect x="580.5" y="230.0" width="39" height="32" rx="2" ry="2" fill="#d84315" stroke="#222" stroke-width="1"/>
<text x="600.0" y="243.3" text-anchor="middle" dominant-baseline="middle" font-size="6" fill="#fff">side-</text>
<text x="600.0" y="249.9" text-anchor="middle" dominant-baseline="middle" font-size="6" fill="#fff">channel-map</text>
<rect x="534.0" y="266.0" width="39" height="32" rx="2" ry="2" fill="#558b2f" stroke="#222" stroke-width="1"/>
<text x="553.5" y="279.3" text-anchor="middle" dominant-baseline="middle" font-size="6" fill="#fff">object-</text>
<text x="553.5" y="285.9" text-anchor="middle" dominant-baseline="middle" font-size="6" fill="#fff">inspect</text>
<rect x="627.0" y="266.0" width="39" height="32" rx="2" ry="2" fill="#f57f17" stroke="#222" stroke-width="1"/>
<text x="646.5" y="279.3" text-anchor="middle" dominant-baseline="middle" font-size="6" fill="#fff">call-</text>
<text x="646.5" y="285.9" text-anchor="middle" dominant-baseline="middle" font-size="6" fill="#fff">bound</text>
<rect x="580.5" y="302.0" width="39" height="32" rx="2" ry="2" fill="#f57f17" stroke="#222" stroke-width="1"/>
<text x="600.0" y="315.3" text-anchor="middle" dominant-baseline="middle" font-size="6" fill="#fff">get-</text>
<text x="600.0" y="321.9" text-anchor="middle" dominant-baseline="middle" font-size="6" fill="#fff">intrinsic</text>
<rect x="496.5" y="338.0" width="39" height="32" rx="2" ry="2" fill="#d84315" stroke="#222" stroke-width="1"/>
<text x="516.0" y="355.0" text-anchor="middle" dominant-baseline="middle" font-size="6" fill="#fff">hasown</text>
<rect x="538.5" y="338.0" width="39" height="32" rx="2" ry="2" fill="#d84315" stroke="#222" stroke-width="1"/>
<text x="558.0" y="351.3" text-anchor="middle" dominant-baseline="middle" font-size="6" fill="#fff">get-</text>
<text x="558.0" y="357.9" text-anchor="middle" dominant-baseline="middle" font-size="6" fill="#fff">proto</text>
<rect x="580.5" y="338.0" width="39" height="32" rx="2" ry="2" fill="#f57f17" stroke="#222" stroke-width="1"/>
<text x="600.0" y="351.3" text-anchor="middle" dominant-baseline="middle" font-size="6" fill="#fff">has-</text>
<text x="600.0" y="357.9" text-anchor="middle" dominant-baseline="middle" font-size="6" fill="#fff">symbols</text>
<rect x="622.5" y="338.0" width="39" height="32" rx="2" ry="2" fill="#d84315" stroke="#222" stroke-width="1"/>
<text x="642.0" y="351.3" text-anchor="middle" dominant-baseline="middle" font-size="6" fill="#fff">math-</text>
<text x="642.0" y="357.9" text-anchor="middle" dominant-baseline="middle" font-size="6" fill="#fff">intrinsics</text>
<rect x="664.5" y="338.0" width="39" height="32" rx="2" ry="2" fill="#d84315" stroke="#222" stroke-width="1"/>
<text x="684.0" y="351.3" text-anchor="middle" dominant-baseline="middle" font-size="6" fill="#fff">es-define-</text>
<text x="684.0" y="357.9" text-anchor="middle" dominant-baseline="middle" font-size="6" fill="#fff">property</text>
<rect x="559.5" y="374.0" width="39" height="32" rx="2" ry="2" fill="#d84315" stroke="#222" stroke-width="1"/>
<text x="579.0" y="387.3" text-anchor="middle" dominant-baseline="middle" font-size="6" fill="#fff">dunder-</text>
<text x="579.0" y="393.9" text-anchor="middle" dominant-baseline="middle" font-size="6" fill="#fff">proto</text>
<rect x="601.5" y="374.0" width="39" height="32" rx="2" ry="2" fill="#d84315" stroke="#222" stroke-width="1"/>
<text x="621.0" y="387.3" text-anchor="middle" dominant-baseline="middle" font-size="6" fill="#fff">es-object-</text>
<text x="621.0" y="393.9" text-anchor="middle" dominant-baseline="middle" font-size="6" fill="#fff">atoms</text>
<rect x="559.5" y="410.0" width="39" height="32" rx="2" ry="2" fill="#d84315" stroke="#222" stroke-width="1"/>
<text x="579.0" y="427.0" text-anchor="middle" dominant-baseline="middle" font-size="6" fill="#fff">gopd</text>
<rect x="601.5" y="410.0" width="39" height="32" rx="2" ry="2" fill="#d84315" stroke="#222" stroke-width="1"/>
<text x="621.0" y="423.3" text-anchor="middle" dominant-baseline="middle" font-size="6" fill="#fff">call-bind-</text>
<text x="621.0" y="429.9" text-anchor="middle" dominant-baseline="middle" font-size="6" fill="#fff">apply-helpers</text>
<rect x="530.7" y="446.0" width="39" height="32" rx="2" ry="2" fill="#d84315" stroke="#222" stroke-width="1"/>
<text x="550.2" y="459.3" text-anchor="middle" dominant-baseline="middle" font-size="6" fill="#fff">es-</text>
<text x="550.2" y="465.9" text-anchor="middle" dominant-baseline="middle" font-size="6" fill="#fff">errors</text>
<rect x="630.3" y="446.0" width="39" height="32" rx="2" ry="2" fill="#c62828" stroke="#222" stroke-width="1"/>
<text x="649.8" y="459.3" text-anchor="middle" dominant-baseline="middle" font-size="6" fill="#fff">function-</text>
<text x="649.8" y="465.9" text-anchor="middle" dominant-baseline="middle" font-size="6" fill="#fff">bind</text>
<line x1="508.3" y1="522.0" x2="628.3" y2="462.0" stroke="#1a237e" stroke-width="2.5" marker-end="url(#arr)"/>
<text x="600.0" y="502" text-anchor="middle" font-size="13" fill="#555" font-style="italic">“function-bind”: 13 years of code, 1 active maintainer, no commits this year. 12 packages depend on it.</text>
<text x="600.0" y="524" text-anchor="middle" font-size="9" fill="#bbb">generated by ossuary — inspired by xkcd.com/2347</text>
</svg>