<svg xmlns="http://www.w3.org/2000/svg" width="800" height="1280" style="background: #fafafa; font-family: 'Comic Sans MS', 'Chalkboard SE', cursive, sans-serif;">
<text x="400.0" y="35" text-anchor="middle" font-size="22" font-weight="bold" fill="#333">express_package.json — dependency risk</text>
<rect x="102.0" y="1140" width="596" height="38" rx="3" ry="3" fill="#388e3c" stroke="#333" stroke-width="1.5"/>
<text x="400.0" y="1161.0" text-anchor="middle" dominant-baseline="middle" font-size="12" fill="#ffffff">range-parser</text>
<rect x="156.5" y="1100" width="487" height="38" rx="3" ry="3" fill="#7cb342" stroke="#333" stroke-width="1.5"/>
<text x="400.0" y="1121.0" text-anchor="middle" dominant-baseline="middle" font-size="12" fill="#ffffff">parseurl</text>
<rect x="102.0" y="1060" width="596" height="38" rx="3" ry="3" fill="#388e3c" stroke="#333" stroke-width="1.5"/>
<text x="400.0" y="1081.0" text-anchor="middle" dominant-baseline="middle" font-size="12" fill="#ffffff">send</text>
<rect x="33.0" y="1020" width="734" height="38" rx="3" ry="3" fill="#388e3c" stroke="#333" stroke-width="1.5"/>
<text x="400.0" y="1041.0" text-anchor="middle" dominant-baseline="middle" font-size="12" fill="#ffffff">router</text>
<rect x="126.5" y="980" width="547" height="38" rx="3" ry="3" fill="#388e3c" stroke="#333" stroke-width="1.5"/>
<text x="400.0" y="1001.0" text-anchor="middle" dominant-baseline="middle" font-size="12" fill="#ffffff">fresh</text>
<rect x="250.0" y="940" width="300" height="38" rx="3" ry="3" fill="#d32f2f" stroke="#333" stroke-width="1.5"/>
<text x="400.0" y="961.0" text-anchor="middle" dominant-baseline="middle" font-size="12" fill="#ffffff">depd</text>
<line x1="552.0" y1="960.0" x2="558.0" y2="960.0" stroke="#999" stroke-width="0.5" stroke-dasharray="2,2"/>
<text x="560.0" y="961.0" dominant-baseline="middle" font-size="10" fill="#666" font-style="italic">1 contributor, 0 commits/yr</text>
<rect x="156.5" y="900" width="487" height="38" rx="3" ry="3" fill="#7cb342" stroke="#333" stroke-width="1.5"/>
<text x="400.0" y="921.0" text-anchor="middle" dominant-baseline="middle" font-size="12" fill="#ffffff">proxy-addr</text>
<rect x="250.0" y="860" width="300" height="38" rx="3" ry="3" fill="#d32f2f" stroke="#333" stroke-width="1.5"/>
<text x="400.0" y="881.0" text-anchor="middle" dominant-baseline="middle" font-size="12" fill="#ffffff">escape-html</text>
<line x1="552.0" y1="880.0" x2="558.0" y2="880.0" stroke="#999" stroke-width="0.5" stroke-dasharray="2,2"/>
<text x="560.0" y="881.0" dominant-baseline="middle" font-size="10" fill="#666" font-style="italic">1 contributor, 0 commits/yr</text>
<rect x="126.5" y="820" width="547" height="38" rx="3" ry="3" fill="#7cb342" stroke="#333" stroke-width="1.5"/>
<text x="400.0" y="841.0" text-anchor="middle" dominant-baseline="middle" font-size="12" fill="#ffffff">debug</text>
<rect x="20.0" y="780" width="760" height="38" rx="3" ry="3" fill="#388e3c" stroke="#333" stroke-width="1.5"/>
<text x="400.0" y="801.0" text-anchor="middle" dominant-baseline="middle" font-size="12" fill="#ffffff">mime-types</text>
<rect x="102.0" y="740" width="596" height="38" rx="3" ry="3" fill="#7cb342" stroke="#333" stroke-width="1.5"/>
<text x="400.0" y="761.0" text-anchor="middle" dominant-baseline="middle" font-size="12" fill="#ffffff">http-errors</text>
<rect x="156.5" y="700" width="487" height="38" rx="3" ry="3" fill="#7cb342" stroke="#333" stroke-width="1.5"/>
<text x="400.0" y="721.0" text-anchor="middle" dominant-baseline="middle" font-size="12" fill="#ffffff">vary</text>
<rect x="126.5" y="660" width="547" height="38" rx="3" ry="3" fill="#388e3c" stroke="#333" stroke-width="1.5"/>
<text x="400.0" y="681.0" text-anchor="middle" dominant-baseline="middle" font-size="12" fill="#ffffff">finalhandler</text>
<rect x="102.0" y="620" width="596" height="38" rx="3" ry="3" fill="#7cb342" stroke="#333" stroke-width="1.5"/>
<text x="400.0" y="641.0" text-anchor="middle" dominant-baseline="middle" font-size="12" fill="#ffffff">content-type</text>
<rect x="250.0" y="580" width="300" height="38" rx="3" ry="3" fill="#e65100" stroke="#333" stroke-width="1.5"/>
<text x="400.0" y="601.0" text-anchor="middle" dominant-baseline="middle" font-size="12" fill="#ffffff">once</text>
<line x1="552.0" y1="600.0" x2="558.0" y2="600.0" stroke="#999" stroke-width="0.5" stroke-dasharray="2,2"/>
<text x="560.0" y="601.0" dominant-baseline="middle" font-size="10" fill="#666" font-style="italic">1 contributor, 1 commits/yr</text>
<rect x="102.0" y="540" width="596" height="38" rx="3" ry="3" fill="#388e3c" stroke="#333" stroke-width="1.5"/>
<text x="400.0" y="561.0" text-anchor="middle" dominant-baseline="middle" font-size="12" fill="#ffffff">content-disposition</text>
<rect x="63.0" y="500" width="674" height="38" rx="3" ry="3" fill="#7cb342" stroke="#333" stroke-width="1.5"/>
<text x="400.0" y="521.0" text-anchor="middle" dominant-baseline="middle" font-size="12" fill="#ffffff">cookie</text>
<rect x="156.5" y="460" width="487" height="38" rx="3" ry="3" fill="#7cb342" stroke="#333" stroke-width="1.5"/>
<text x="400.0" y="481.0" text-anchor="middle" dominant-baseline="middle" font-size="12" fill="#ffffff">qs</text>
<rect x="126.5" y="420" width="547" height="38" rx="3" ry="3" fill="#7cb342" stroke="#333" stroke-width="1.5"/>
<text x="400.0" y="441.0" text-anchor="middle" dominant-baseline="middle" font-size="12" fill="#ffffff">encodeurl</text>
<rect x="81.0" y="380" width="638" height="38" rx="3" ry="3" fill="#388e3c" stroke="#333" stroke-width="1.5"/>
<text x="400.0" y="401.0" text-anchor="middle" dominant-baseline="middle" font-size="12" fill="#ffffff">accepts</text>
<rect x="102.0" y="340" width="596" height="38" rx="3" ry="3" fill="#7cb342" stroke="#333" stroke-width="1.5"/>
<text x="400.0" y="361.0" text-anchor="middle" dominant-baseline="middle" font-size="12" fill="#ffffff">statuses</text>
<rect x="195.5" y="300" width="409" height="38" rx="3" ry="3" fill="#f9a825" stroke="#333" stroke-width="1.5"/>
<text x="400.0" y="321.0" text-anchor="middle" dominant-baseline="middle" font-size="12" fill="#ffffff">etag</text>
<rect x="102.0" y="260" width="596" height="38" rx="3" ry="3" fill="#388e3c" stroke="#333" stroke-width="1.5"/>
<text x="400.0" y="281.0" text-anchor="middle" dominant-baseline="middle" font-size="12" fill="#ffffff">on-finished</text>
<rect x="81.0" y="220" width="638" height="38" rx="3" ry="3" fill="#388e3c" stroke="#333" stroke-width="1.5"/>
<text x="400.0" y="241.0" text-anchor="middle" dominant-baseline="middle" font-size="12" fill="#ffffff">type-is</text>
<rect x="20.0" y="180" width="760" height="38" rx="3" ry="3" fill="#388e3c" stroke="#333" stroke-width="1.5"/>
<text x="400.0" y="201.0" text-anchor="middle" dominant-baseline="middle" font-size="12" fill="#ffffff">body-parser</text>
<rect x="250.0" y="140" width="300" height="38" rx="3" ry="3" fill="#e65100" stroke="#333" stroke-width="1.5"/>
<text x="400.0" y="161.0" text-anchor="middle" dominant-baseline="middle" font-size="12" fill="#ffffff">cookie-signature</text>
<line x1="552.0" y1="160.0" x2="558.0" y2="160.0" stroke="#999" stroke-width="0.5" stroke-dasharray="2,2"/>
<text x="560.0" y="161.0" dominant-baseline="middle" font-size="10" fill="#666" font-style="italic">1 contributor, 0 commits/yr</text>
<rect x="102.0" y="100" width="596" height="38" rx="3" ry="3" fill="#388e3c" stroke="#333" stroke-width="1.5"/>
<text x="400.0" y="121.0" text-anchor="middle" dominant-baseline="middle" font-size="12" fill="#ffffff">serve-static</text>
<rect x="250.0" y="60" width="300" height="38" rx="3" ry="3" fill="#e65100" stroke="#333" stroke-width="1.5"/>
<text x="400.0" y="81.0" text-anchor="middle" dominant-baseline="middle" font-size="12" fill="#ffffff">merge-descriptors</text>
<line x1="552.0" y1="80.0" x2="558.0" y2="80.0" stroke="#999" stroke-width="0.5" stroke-dasharray="2,2"/>
<text x="560.0" y="81.0" dominant-baseline="middle" font-size="10" fill="#666" font-style="italic">1 contributor, 0 commits/yr</text>
<text x="400.0" y="1210" text-anchor="middle" font-size="13" fill="#666" font-style="italic">All of express_package.json rests on "escape-html" (1 contributor, 0 commits/yr, score 95)</text>
<text x="400.0" y="1235" text-anchor="middle" font-size="10" fill="#aaa">Generated by ossuary — inspired by xkcd.com/2347</text>
</svg>