<svg xmlns="http://www.w3.org/2000/svg" width="800" height="2306" style="background: #fafafa; font-family: 'Comic Sans MS', 'Chalkboard SE', cursive, sans-serif;">
<defs><marker id="arr" markerWidth="10" markerHeight="7" refX="10" refY="3.5" orient="auto" markerUnits="strokeWidth"><polygon points="0 0, 10 3.5, 0 7" fill="#1a237e"/></marker></defs>
<text x="310.0" y="32" text-anchor="middle" font-size="20" font-weight="bold" fill="#333">Home Assistant</text>
<rect x="169.0" y="2178.0" width="282" height="36" rx="2" ry="2" fill="#2e7d32" stroke="#222" stroke-width="1.2"/>
<text x="310.0" y="2197.0" text-anchor="middle" dominant-baseline="middle" font-size="11" fill="#fff">SQLAlchemy</text>
<rect x="323.0" y="2140.0" width="156" height="36" rx="2" ry="2" fill="#2e7d32" stroke="#222" stroke-width="1.2"/>
<text x="401.0" y="2159.0" text-anchor="middle" dominant-baseline="middle" font-size="11" fill="#fff">typing-extensions</text>
<rect x="241.7" y="2102.0" width="199" height="36" rx="2" ry="2" fill="#2e7d32" stroke="#222" stroke-width="1.2"/>
<text x="341.2" y="2121.0" text-anchor="middle" dominant-baseline="middle" font-size="11" fill="#fff">urllib3</text>
<rect x="264.7" y="2064.0" width="103" height="36" rx="2" ry="2" fill="#2e7d32" stroke="#222" stroke-width="1.2"/>
<text x="316.2" y="2083.0" text-anchor="middle" dominant-baseline="middle" font-size="10" fill="#fff">aiodns</text>
<rect x="225.6" y="2026.0" width="109" height="36" rx="2" ry="2" fill="#2e7d32" stroke="#222" stroke-width="1.2"/>
<text x="280.1" y="2045.0" text-anchor="middle" dominant-baseline="middle" font-size="10" fill="#fff">zeroconf</text>
<rect x="285.9" y="1988.0" width="89" height="36" rx="2" ry="2" fill="#558b2f" stroke="#222" stroke-width="1.2"/>
<line x1="375.9" y1="2006.0" x2="379.9" y2="2006.0" stroke="#888" stroke-width="0.7"/>
<text x="380.9" y="2007.0" dominant-baseline="middle" font-size="9" fill="#555">awesomeversion</text>
<rect x="282.7" y="1950.0" width="49" height="36" rx="2" ry="2" fill="#c62828" stroke="#222" stroke-width="1.2"/>
<line x1="332.7" y1="1968.0" x2="336.7" y2="1968.0" stroke="#888" stroke-width="0.7"/>
<text x="337.7" y="1969.0" dominant-baseline="middle" font-size="9" fill="#555">standard-aifc</text>
<rect x="278.4" y="1912.0" width="82" height="36" rx="2" ry="2" fill="#f57f17" stroke="#222" stroke-width="1.2"/>
<line x1="361.4" y1="1930.0" x2="365.4" y2="1930.0" stroke="#888" stroke-width="0.7"/>
<text x="366.4" y="1931.0" dominant-baseline="middle" font-size="9" fill="#555">python-slugify</text>
<rect x="268.4" y="1874.0" width="89" height="36" rx="2" ry="2" fill="#558b2f" stroke="#222" stroke-width="1.2"/>
<line x1="358.4" y1="1892.0" x2="362.4" y2="1892.0" stroke="#888" stroke-width="0.7"/>
<text x="363.4" y="1893.0" dominant-baseline="middle" font-size="9" fill="#555">voluptuous-serialize</text>
<rect x="283.2" y="1836.0" width="139" height="36" rx="2" ry="2" fill="#2e7d32" stroke="#222" stroke-width="1.2"/>
<text x="352.7" y="1855.0" text-anchor="middle" dominant-baseline="middle" font-size="10" fill="#fff">requests</text>
<rect x="255.7" y="1798.0" width="148" height="36" rx="2" ry="2" fill="#2e7d32" stroke="#222" stroke-width="1.2"/>
<text x="329.7" y="1817.0" text-anchor="middle" dominant-baseline="middle" font-size="11" fill="#fff">attrs</text>
<rect x="303.0" y="1760.0" width="82" height="36" rx="2" ry="2" fill="#2e7d32" stroke="#222" stroke-width="1.2"/>
<line x1="386.0" y1="1778.0" x2="390.0" y2="1778.0" stroke="#888" stroke-width="0.7"/>
<text x="391.0" y="1779.0" dominant-baseline="middle" font-size="9" fill="#555">aiohttp-fast-zlib</text>
<rect x="291.9" y="1722.0" width="139" height="36" rx="2" ry="2" fill="#2e7d32" stroke="#222" stroke-width="1.2"/>
<text x="361.4" y="1741.0" text-anchor="middle" dominant-baseline="middle" font-size="10" fill="#fff">yarl</text>
<rect x="318.5" y="1684.0" width="148" height="36" rx="2" ry="2" fill="#2e7d32" stroke="#222" stroke-width="1.2"/>
<text x="392.5" y="1703.0" text-anchor="middle" dominant-baseline="middle" font-size="11" fill="#fff">PyJWT</text>
<rect x="375.6" y="1646.0" width="49" height="36" rx="2" ry="2" fill="#c62828" stroke="#222" stroke-width="1.2"/>
<line x1="425.6" y1="1664.0" x2="429.6" y2="1664.0" stroke="#888" stroke-width="0.7"/>
<text x="430.6" y="1665.0" dominant-baseline="middle" font-size="9" fill="#555">standard-telnetlib</text>
<rect x="338.8" y="1608.0" width="49" height="36" rx="2" ry="2" fill="#c62828" stroke="#222" stroke-width="1.2"/>
<line x1="388.8" y1="1626.0" x2="392.8" y2="1626.0" stroke="#888" stroke-width="0.7"/>
<text x="393.8" y="1627.0" dominant-baseline="middle" font-size="9" fill="#555">pymicro-vad</text>
<rect x="269.4" y="1570.0" width="103" height="36" rx="2" ry="2" fill="#558b2f" stroke="#222" stroke-width="1.2"/>
<text x="320.9" y="1589.0" text-anchor="middle" dominant-baseline="middle" font-size="10" fill="#fff">hassil</text>
<rect x="207.9" y="1532.0" width="163" height="36" rx="2" ry="2" fill="#2e7d32" stroke="#222" stroke-width="1.2"/>
<text x="289.4" y="1551.0" text-anchor="middle" dominant-baseline="middle" font-size="11" fill="#fff">Pillow</text>
<rect x="316.9" y="1494.0" width="49" height="36" rx="2" ry="2" fill="#558b2f" stroke="#222" stroke-width="1.2"/>
<line x1="366.9" y1="1512.0" x2="370.9" y2="1512.0" stroke="#888" stroke-width="0.7"/>
<text x="371.9" y="1513.0" dominant-baseline="middle" font-size="9" fill="#555">PyYAML</text>
<rect x="312.5" y="1456.0" width="62" height="36" rx="2" ry="2" fill="#d84315" stroke="#222" stroke-width="1.2"/>
<line x1="375.5" y1="1474.0" x2="379.5" y2="1474.0" stroke="#888" stroke-width="0.7"/>
<text x="380.5" y="1475.0" dominant-baseline="middle" font-size="9" fill="#555">aiohttp-asyncmdnsresolver</text>
<rect x="297.4" y="1418.0" width="89" height="36" rx="2" ry="2" fill="#2e7d32" stroke="#222" stroke-width="1.2"/>
<line x1="387.4" y1="1436.0" x2="391.4" y2="1436.0" stroke="#888" stroke-width="0.7"/>
<text x="392.4" y="1437.0" dominant-baseline="middle" font-size="9" fill="#555">fnv-hash-fast</text>
<rect x="323.4" y="1380.0" width="89" height="36" rx="2" ry="2" fill="#2e7d32" stroke="#222" stroke-width="1.2"/>
<line x1="413.4" y1="1398.0" x2="417.4" y2="1398.0" stroke="#888" stroke-width="0.7"/>
<text x="418.4" y="1399.0" dominant-baseline="middle" font-size="9" fill="#555">certifi</text>
<rect x="351.0" y="1342.0" width="49" height="36" rx="2" ry="2" fill="#c62828" stroke="#222" stroke-width="1.2"/>
<line x1="401.0" y1="1360.0" x2="405.0" y2="1360.0" stroke="#888" stroke-width="0.7"/>
<text x="406.0" y="1361.0" dominant-baseline="middle" font-size="9" fill="#555">astral</text>
<rect x="317.2" y="1304.0" width="230" height="36" rx="2" ry="2" fill="#2e7d32" stroke="#222" stroke-width="1.2"/>
<text x="432.2" y="1323.0" text-anchor="middle" dominant-baseline="middle" font-size="11" fill="#fff">cryptography</text>
<rect x="428.9" y="1266.0" width="82" height="36" rx="2" ry="2" fill="#d84315" stroke="#222" stroke-width="1.2"/>
<line x1="511.9" y1="1284.0" x2="515.9" y2="1284.0" stroke="#888" stroke-width="0.7"/>
<text x="516.9" y="1285.0" dominant-baseline="middle" font-size="9" fill="#555">audioop-lts</text>
<rect x="416.5" y="1228.0" width="97" height="36" rx="2" ry="2" fill="#2e7d32" stroke="#222" stroke-width="1.2"/>
<line x1="514.5" y1="1246.0" x2="518.5" y2="1246.0" stroke="#888" stroke-width="0.7"/>
<text x="519.5" y="1247.0" dominant-baseline="middle" font-size="9" fill="#555">ulid-transform</text>
<rect x="414.6" y="1190.0" width="125" height="36" rx="2" ry="2" fill="#558b2f" stroke="#222" stroke-width="1.2"/>
<text x="477.1" y="1209.0" text-anchor="middle" dominant-baseline="middle" font-size="10" fill="#fff">bcrypt</text>
<rect x="234.3" y="1152.0" width="273" height="36" rx="2" ry="2" fill="#2e7d32" stroke="#222" stroke-width="1.2"/>
<text x="370.8" y="1171.0" text-anchor="middle" dominant-baseline="middle" font-size="11" fill="#fff">aiohttp</text>
<rect x="297.5" y="1114.0" width="97" height="36" rx="2" ry="2" fill="#f57f17" stroke="#222" stroke-width="1.2"/>
<line x1="395.5" y1="1132.0" x2="399.5" y2="1132.0" stroke="#888" stroke-width="0.7"/>
<text x="400.5" y="1133.0" dominant-baseline="middle" font-size="9" fill="#555">lru-dict</text>
<rect x="315.5" y="1076.0" width="89" height="36" rx="2" ry="2" fill="#d84315" stroke="#222" stroke-width="1.2"/>
<line x1="405.5" y1="1094.0" x2="409.5" y2="1094.0" stroke="#888" stroke-width="0.7"/>
<text x="410.5" y="1095.0" dominant-baseline="middle" font-size="9" fill="#555">ciso8601</text>
<rect x="301.0" y="1038.0" width="49" height="36" rx="2" ry="2" fill="#c62828" stroke="#222" stroke-width="1.2"/>
<line x1="351.0" y1="1056.0" x2="355.0" y2="1056.0" stroke="#888" stroke-width="0.7"/>
<text x="356.0" y="1057.0" dominant-baseline="middle" font-size="9" fill="#555">ifaddr</text>
<rect x="309.9" y="1000.0" width="62" height="36" rx="2" ry="2" fill="#d84315" stroke="#222" stroke-width="1.2"/>
<line x1="372.9" y1="1018.0" x2="376.9" y2="1018.0" stroke="#888" stroke-width="0.7"/>
<text x="377.9" y="1019.0" dominant-baseline="middle" font-size="9" fill="#555">psutil-home-assistant</text>
<rect x="317.5" y="962.0" width="62" height="36" rx="2" ry="2" fill="#c62828" stroke="#222" stroke-width="1.2"/>
<line x1="380.5" y1="980.0" x2="384.5" y2="980.0" stroke="#888" stroke-width="0.7"/>
<text x="385.5" y="981.0" dominant-baseline="middle" font-size="9" fill="#555">PyTurboJPEG</text>
<rect x="322.3" y="924.0" width="49" height="36" rx="2" ry="2" fill="#f57f17" stroke="#222" stroke-width="1.2"/>
<line x1="372.3" y1="942.0" x2="376.3" y2="942.0" stroke="#888" stroke-width="0.7"/>
<text x="377.3" y="943.0" dominant-baseline="middle" font-size="9" fill="#555">webrtc-models</text>
<rect x="313.3" y="886.0" width="82" height="36" rx="2" ry="2" fill="#2e7d32" stroke="#222" stroke-width="1.2"/>
<line x1="396.3" y1="904.0" x2="400.3" y2="904.0" stroke="#888" stroke-width="0.7"/>
<text x="401.3" y="905.0" dominant-baseline="middle" font-size="9" fill="#555">aiogithubapi</text>
<rect x="269.1" y="848.0" width="97" height="36" rx="2" ry="2" fill="#2e7d32" stroke="#222" stroke-width="1.2"/>
<line x1="367.1" y1="866.0" x2="371.1" y2="866.0" stroke="#888" stroke-width="0.7"/>
<text x="372.1" y="867.0" dominant-baseline="middle" font-size="9" fill="#555">mutagen</text>
<rect x="299.2" y="810.0" width="49" height="36" rx="2" ry="2" fill="#c62828" stroke="#222" stroke-width="1.2"/>
<line x1="349.2" y1="828.0" x2="353.2" y2="828.0" stroke="#888" stroke-width="0.7"/>
<text x="354.2" y="829.0" dominant-baseline="middle" font-size="9" fill="#555">pyspeex-noise</text>
<rect x="235.0" y="772.0" width="202" height="36" rx="2" ry="2" fill="#558b2f" stroke="#222" stroke-width="1.2"/>
<text x="336.0" y="791.0" text-anchor="middle" dominant-baseline="middle" font-size="11" fill="#fff">packaging</text>
<rect x="206.0" y="734.0" width="130" height="36" rx="2" ry="2" fill="#2e7d32" stroke="#222" stroke-width="1.2"/>
<text x="271.0" y="753.0" text-anchor="middle" dominant-baseline="middle" font-size="10" fill="#fff">propcache</text>
<rect x="165.5" y="696.0" width="120" height="36" rx="2" ry="2" fill="#2e7d32" stroke="#222" stroke-width="1.2"/>
<text x="225.5" y="715.0" text-anchor="middle" dominant-baseline="middle" font-size="10" fill="#fff">pyOpenSSL</text>
<rect x="40.0" y="658.0" width="540" height="36" rx="2" ry="2" fill="#2e7d32" stroke="#222" stroke-width="1.2"/>
<text x="310.0" y="677.0" text-anchor="middle" dominant-baseline="middle" font-size="11" fill="#fff">uv</text>
<rect x="133.8" y="620.0" width="82" height="36" rx="2" ry="2" fill="#2e7d32" stroke="#222" stroke-width="1.2"/>
<line x1="216.8" y1="638.0" x2="220.8" y2="638.0" stroke="#888" stroke-width="0.7"/>
<text x="221.8" y="639.0" dominant-baseline="middle" font-size="9" fill="#555">async-interrupt</text>
<rect x="158.5" y="582.0" width="62" height="36" rx="2" ry="2" fill="#d84315" stroke="#222" stroke-width="1.2"/>
<line x1="221.5" y1="600.0" x2="225.5" y2="600.0" stroke="#888" stroke-width="0.7"/>
<text x="226.5" y="601.0" dominant-baseline="middle" font-size="9" fill="#555">ha-ffmpeg</text>
<rect x="128.3" y="544.0" width="97" height="36" rx="2" ry="2" fill="#2e7d32" stroke="#222" stroke-width="1.2"/>
<line x1="226.3" y1="562.0" x2="230.3" y2="562.0" stroke="#888" stroke-width="0.7"/>
<text x="231.3" y="563.0" dominant-baseline="middle" font-size="9" fill="#555">annotatedyaml</text>
<rect x="172.8" y="506.0" width="103" height="36" rx="2" ry="2" fill="#558b2f" stroke="#222" stroke-width="1.2"/>
<text x="224.3" y="525.0" text-anchor="middle" dominant-baseline="middle" font-size="10" fill="#fff">voluptuous-..</text>
<rect x="119.8" y="468.0" width="152" height="36" rx="2" ry="2" fill="#2e7d32" stroke="#222" stroke-width="1.2"/>
<text x="195.8" y="487.0" text-anchor="middle" dominant-baseline="middle" font-size="11" fill="#fff">httpx</text>
<rect x="200.6" y="430.0" width="62" height="36" rx="2" ry="2" fill="#558b2f" stroke="#222" stroke-width="1.2"/>
<line x1="263.6" y1="448.0" x2="267.6" y2="448.0" stroke="#888" stroke-width="0.7"/>
<text x="268.6" y="449.0" dominant-baseline="middle" font-size="9" fill="#555">Jinja2</text>
<rect x="233.3" y="392.0" width="109" height="36" rx="2" ry="2" fill="#558b2f" stroke="#222" stroke-width="1.2"/>
<text x="287.8" y="411.0" text-anchor="middle" dominant-baseline="middle" font-size="10" fill="#fff">aiohasupervi..</text>
<rect x="242.8" y="354.0" width="73" height="36" rx="2" ry="2" fill="#2e7d32" stroke="#222" stroke-width="1.2"/>
<line x1="316.8" y1="372.0" x2="320.8" y2="372.0" stroke="#888" stroke-width="0.7"/>
<text x="321.8" y="373.0" dominant-baseline="middle" font-size="9" fill="#555">securetar</text>
<rect x="228.4" y="316.0" width="89" height="36" rx="2" ry="2" fill="#558b2f" stroke="#222" stroke-width="1.2"/>
<line x1="318.4" y1="334.0" x2="322.4" y2="334.0" stroke="#888" stroke-width="0.7"/>
<text x="323.4" y="335.0" dominant-baseline="middle" font-size="9" fill="#555">aiohttp_cors</text>
<rect x="270.5" y="278.0" width="89" height="36" rx="2" ry="2" fill="#2e7d32" stroke="#222" stroke-width="1.2"/>
<line x1="360.5" y1="296.0" x2="364.5" y2="296.0" stroke="#888" stroke-width="0.7"/>
<text x="365.5" y="297.0" dominant-baseline="middle" font-size="9" fill="#555">home-assistant-bluetooth</text>
<rect x="261.4" y="240.0" width="49" height="36" rx="2" ry="2" fill="#d84315" stroke="#222" stroke-width="1.2"/>
<line x1="311.4" y1="258.0" x2="315.4" y2="258.0" stroke="#888" stroke-width="0.7"/>
<text x="316.4" y="259.0" dominant-baseline="middle" font-size="9" fill="#555">orjson</text>
<rect x="284.6" y="202.0" width="49" height="36" rx="2" ry="2" fill="#c62828" stroke="#222" stroke-width="1.2"/>
<line x1="334.6" y1="220.0" x2="338.6" y2="220.0" stroke="#888" stroke-width="0.7"/>
<text x="339.6" y="221.0" dominant-baseline="middle" font-size="9" fill="#555">cronsim</text>
<rect x="259.6" y="164.0" width="89" height="36" rx="2" ry="2" fill="#2e7d32" stroke="#222" stroke-width="1.2"/>
<line x1="349.6" y1="182.0" x2="353.6" y2="182.0" stroke="#888" stroke-width="0.7"/>
<text x="354.6" y="183.0" dominant-baseline="middle" font-size="9" fill="#555">voluptuous</text>
<rect x="91.6" y="126.0" width="296" height="36" rx="2" ry="2" fill="#2e7d32" stroke="#222" stroke-width="1.2"/>
<text x="239.6" y="145.0" text-anchor="middle" dominant-baseline="middle" font-size="11" fill="#fff">home-assistant-intents</text>
<rect x="117.7" y="88.0" width="62" height="36" rx="2" ry="2" fill="#558b2f" stroke="#222" stroke-width="1.2"/>
<line x1="180.7" y1="106.0" x2="184.7" y2="106.0" stroke="#888" stroke-width="0.7"/>
<text x="185.7" y="107.0" dominant-baseline="middle" font-size="9" fill="#555">aiozoneinfo</text>
<rect x="152.9" y="50.0" width="49" height="36" rx="2" ry="2" fill="#c62828" stroke="#222" stroke-width="1.2"/>
<line x1="202.9" y1="68.0" x2="206.9" y2="68.0" stroke="#888" stroke-width="0.7"/>
<text x="207.9" y="69.0" dominant-baseline="middle" font-size="9" fill="#555">atomicwrites-homeassistant</text>
<line x1="160.7" y1="2028.0" x2="280.7" y2="1968.0" stroke="#1a237e" stroke-width="2.5" marker-end="url(#arr)"/>
<text x="310.0" y="2236" text-anchor="middle" font-size="13" fill="#555" font-style="italic">All of this rests on "standard-aifc", maintained by 1 person. No commits this year.</text>
<text x="310.0" y="2261" text-anchor="middle" font-size="9" fill="#bbb">generated by ossuary // inspired by xkcd.com/2347</text>
</svg>