<svg xmlns="http://www.w3.org/2000/svg" width="1200" height="500" style="background: #fafafa; font-family: 'Comic Sans MS', 'Chalkboard SE', cursive, sans-serif;">
<defs><marker id="arr" markerWidth="10" markerHeight="7" refX="10" refY="3.5" orient="auto" markerUnits="strokeWidth"><polygon points="0 0, 10 3.5, 0 7" fill="#1a237e"/></marker></defs>
<text x="600.0" y="32" text-anchor="middle" font-size="20" font-weight="bold" fill="#333">langchain</text>
<rect x="525.0" y="50.0" width="150" height="32" rx="2" ry="2" fill="#2e7d32" stroke="#222" stroke-width="1"/>
<text x="600.0" y="67.0" text-anchor="middle" dominant-baseline="middle" font-size="10" fill="#fff">langchain</text>
<rect x="555.5" y="86.0" width="89" height="32" rx="2" ry="2" fill="#2e7d32" stroke="#222" stroke-width="1"/>
<text x="600.0" y="103.0" text-anchor="middle" dominant-baseline="middle" font-size="9" fill="#fff">langgraph</text>
<rect x="509.5" y="122.0" width="89" height="32" rx="2" ry="2" fill="#2e7d32" stroke="#222" stroke-width="1"/>
<text x="554.0" y="133.9" text-anchor="middle" dominant-baseline="middle" font-size="9" fill="#fff">langgraph-</text>
<text x="554.0" y="143.8" text-anchor="middle" dominant-baseline="middle" font-size="9" fill="#fff">prebuilt</text>
<rect x="601.5" y="122.0" width="89" height="32" rx="2" ry="2" fill="#2e7d32" stroke="#222" stroke-width="1"/>
<text x="646.0" y="139.0" text-anchor="middle" dominant-baseline="middle" font-size="9" fill="#fff">langgraph-sdk</text>
<rect x="555.5" y="158.0" width="89" height="32" rx="2" ry="2" fill="#2e7d32" stroke="#222" stroke-width="1"/>
<text x="600.0" y="169.9" text-anchor="middle" dominant-baseline="middle" font-size="9" fill="#fff">langgraph-</text>
<text x="600.0" y="179.8" text-anchor="middle" dominant-baseline="middle" font-size="9" fill="#fff">checkpoint</text>
<rect x="504.5" y="194.0" width="150" height="32" rx="2" ry="2" fill="#2e7d32" stroke="#222" stroke-width="1"/>
<text x="579.5" y="211.0" text-anchor="middle" dominant-baseline="middle" font-size="10" fill="#fff">langchain-core</text>
<rect x="657.5" y="194.0" width="38" height="32" rx="2" ry="2" fill="#558b2f" stroke="#222" stroke-width="1"/>
<text x="676.5" y="207.3" text-anchor="middle" dominant-baseline="middle" font-size="6" fill="#fff">orms</text>
<text x="676.5" y="213.9" text-anchor="middle" dominant-baseline="middle" font-size="6" fill="#fff">gpack</text>
<rect x="510.5" y="230.0" width="38" height="32" rx="2" ry="2" fill="#c62828" stroke="#222" stroke-width="1"/>
<text x="529.5" y="243.3" text-anchor="middle" dominant-baseline="middle" font-size="6" fill="#fff">json</text>
<text x="529.5" y="249.9" text-anchor="middle" dominant-baseline="middle" font-size="6" fill="#fff">patch</text>
<rect x="551.5" y="230.0" width="56" height="32" rx="2" ry="2" fill="#2e7d32" stroke="#222" stroke-width="1"/>
<text x="579.5" y="247.0" text-anchor="middle" dominant-baseline="middle" font-size="7" fill="#fff">langsmith</text>
<rect x="610.5" y="230.0" width="38" height="32" rx="2" ry="2" fill="#558b2f" stroke="#222" stroke-width="1"/>
<text x="629.5" y="247.0" text-anchor="middle" dominant-baseline="middle" font-size="6" fill="#fff">pyyaml</text>
<rect x="651.5" y="230.0" width="38" height="32" rx="2" ry="2" fill="#2e7d32" stroke="#222" stroke-width="1"/>
<text x="670.5" y="247.0" text-anchor="middle" dominant-baseline="middle" font-size="6" fill="#fff">tenacity</text>
<rect x="385.5" y="266.0" width="38" height="32" rx="2" ry="2" fill="#c62828" stroke="#222" stroke-width="1"/>
<text x="404.5" y="279.3" text-anchor="middle" dominant-baseline="middle" font-size="6" fill="#fff">jsonp</text>
<text x="404.5" y="285.9" text-anchor="middle" dominant-baseline="middle" font-size="6" fill="#fff">ointer</text>
<rect x="441.5" y="266.0" width="47" height="32" rx="2" ry="2" fill="#f57f17" stroke="#222" stroke-width="1"/>
<text x="465.0" y="283.0" text-anchor="middle" dominant-baseline="middle" font-size="6" fill="#fff">packaging</text>
<rect x="491.5" y="266.0" width="38" height="32" rx="2" ry="2" fill="#d84315" stroke="#222" stroke-width="1"/>
<text x="510.5" y="279.3" text-anchor="middle" dominant-baseline="middle" font-size="6" fill="#fff">requests-</text>
<text x="510.5" y="285.9" text-anchor="middle" dominant-baseline="middle" font-size="6" fill="#fff">toolbelt</text>
<rect x="532.5" y="266.0" width="38" height="32" rx="2" ry="2" fill="#2e7d32" stroke="#222" stroke-width="1"/>
<text x="551.5" y="279.3" text-anchor="middle" dominant-baseline="middle" font-size="6" fill="#fff">uuid-</text>
<text x="551.5" y="285.9" text-anchor="middle" dominant-baseline="middle" font-size="6" fill="#fff">utils</text>
<rect x="573.5" y="266.0" width="38" height="32" rx="2" ry="2" fill="#558b2f" stroke="#222" stroke-width="1"/>
<text x="592.5" y="279.3" text-anchor="middle" dominant-baseline="middle" font-size="6" fill="#fff">zsta</text>
<text x="592.5" y="285.9" text-anchor="middle" dominant-baseline="middle" font-size="6" fill="#fff">ndard</text>
<rect x="614.5" y="266.0" width="76" height="32" rx="2" ry="2" fill="#2e7d32" stroke="#222" stroke-width="1"/>
<text x="652.5" y="283.0" text-anchor="middle" dominant-baseline="middle" font-size="9" fill="#fff">pydantic</text>
<rect x="693.5" y="266.0" width="38" height="32" rx="2" ry="2" fill="#558b2f" stroke="#222" stroke-width="1"/>
<text x="712.5" y="283.0" text-anchor="middle" dominant-baseline="middle" font-size="6" fill="#fff">xxhash</text>
<rect x="734.5" y="266.0" width="39" height="32" rx="2" ry="2" fill="#2e7d32" stroke="#222" stroke-width="1"/>
<text x="754.0" y="283.0" text-anchor="middle" dominant-baseline="middle" font-size="6" fill="#fff">httpx</text>
<rect x="776.5" y="266.0" width="38" height="32" rx="2" ry="2" fill="#d84315" stroke="#222" stroke-width="1"/>
<text x="795.5" y="283.0" text-anchor="middle" dominant-baseline="middle" font-size="6" fill="#fff">orjson</text>
<rect x="432.8" y="302.0" width="38" height="32" rx="2" ry="2" fill="#2e7d32" stroke="#222" stroke-width="1"/>
<text x="451.8" y="319.0" text-anchor="middle" dominant-baseline="middle" font-size="6" fill="#fff">requests</text>
<rect x="540.2" y="302.0" width="38" height="32" rx="2" ry="2" fill="#2e7d32" stroke="#222" stroke-width="1"/>
<text x="559.2" y="315.3" text-anchor="middle" dominant-baseline="middle" font-size="6" fill="#fff">annotated-</text>
<text x="559.2" y="321.9" text-anchor="middle" dominant-baseline="middle" font-size="6" fill="#fff">types</text>
<rect x="581.2" y="302.0" width="44" height="32" rx="2" ry="2" fill="#2e7d32" stroke="#222" stroke-width="1"/>
<text x="603.2" y="315.3" text-anchor="middle" dominant-baseline="middle" font-size="6" fill="#fff">pydantic-</text>
<text x="603.2" y="321.9" text-anchor="middle" dominant-baseline="middle" font-size="6" fill="#fff">core</text>
<rect x="628.2" y="302.0" width="38" height="32" rx="2" ry="2" fill="#558b2f" stroke="#222" stroke-width="1"/>
<text x="647.2" y="315.3" text-anchor="middle" dominant-baseline="middle" font-size="6" fill="#fff">typing-</text>
<text x="647.2" y="321.9" text-anchor="middle" dominant-baseline="middle" font-size="6" fill="#fff">inspection</text>
<rect x="684.2" y="302.0" width="42" height="32" rx="2" ry="2" fill="#2e7d32" stroke="#222" stroke-width="1"/>
<text x="705.2" y="319.0" text-anchor="middle" dominant-baseline="middle" font-size="6" fill="#fff">anyio</text>
<rect x="729.2" y="302.0" width="38" height="32" rx="2" ry="2" fill="#2e7d32" stroke="#222" stroke-width="1"/>
<text x="748.2" y="319.0" text-anchor="middle" dominant-baseline="middle" font-size="6" fill="#fff">httpcore</text>
<rect x="391.4" y="338.0" width="38" height="32" rx="2" ry="2" fill="#9e9e9e" stroke="#222" stroke-width="1"/>
<text x="410.4" y="351.3" text-anchor="middle" dominant-baseline="middle" font-size="6" fill="#fff">charset_</text>
<text x="410.4" y="357.9" text-anchor="middle" dominant-baseline="middle" font-size="6" fill="#fff">normalizer</text>
<rect x="432.4" y="338.0" width="47" height="32" rx="2" ry="2" fill="#2e7d32" stroke="#222" stroke-width="1"/>
<text x="455.9" y="355.0" text-anchor="middle" dominant-baseline="middle" font-size="6" fill="#fff">urllib3</text>
<rect x="576.6" y="338.0" width="38" height="32" rx="2" ry="2" fill="#c62828" stroke="#222" stroke-width="1"/>
<text x="595.6" y="355.0" text-anchor="middle" dominant-baseline="middle" font-size="6" fill="#fff">idna</text>
<rect x="617.6" y="338.0" width="38" height="32" rx="2" ry="2" fill="#2e7d32" stroke="#222" stroke-width="1"/>
<text x="636.6" y="355.0" text-anchor="middle" dominant-baseline="middle" font-size="6" fill="#fff">certifi</text>
<rect x="673.6" y="338.0" width="38" height="32" rx="2" ry="2" fill="#d84315" stroke="#222" stroke-width="1"/>
<text x="692.6" y="351.3" text-anchor="middle" dominant-baseline="middle" font-size="6" fill="#fff">excepti</text>
<text x="692.6" y="357.9" text-anchor="middle" dominant-baseline="middle" font-size="6" fill="#fff">ongroup</text>
<rect x="714.6" y="338.0" width="38" height="32" rx="2" ry="2" fill="#9e9e9e" stroke="#222" stroke-width="1"/>
<text x="733.6" y="351.3" text-anchor="middle" dominant-baseline="middle" font-size="6" fill="#fff">typing_</text>
<text x="733.6" y="357.9" text-anchor="middle" dominant-baseline="middle" font-size="6" fill="#fff">extensions</text>
<rect x="770.6" y="338.0" width="38" height="32" rx="2" ry="2" fill="#f57f17" stroke="#222" stroke-width="1"/>
<text x="789.6" y="355.0" text-anchor="middle" dominant-baseline="middle" font-size="6" fill="#fff">h11</text>
<rect x="580.5" y="374.0" width="39" height="32" rx="2" ry="2" fill="#2e7d32" stroke="#222" stroke-width="1"/>
<text x="600.0" y="387.3" text-anchor="middle" dominant-baseline="middle" font-size="6" fill="#fff">typing-</text>
<text x="600.0" y="393.9" text-anchor="middle" dominant-baseline="middle" font-size="6" fill="#fff">extensions</text>
<line x1="654.5" y1="342.0" x2="774.5" y2="282.0" stroke="#1a237e" stroke-width="2.5" marker-end="url(#arr)"/>
<text x="600.0" y="430" text-anchor="middle" font-size="13" fill="#555" font-style="italic">“orjson”: 7 years of code, 1 active maintainer, 65 commits/yr. 7 packages depend on it.</text>
<text x="600.0" y="452" text-anchor="middle" font-size="9" fill="#bbb">generated by ossuary — inspired by xkcd.com/2347</text>
</svg>