<svg xmlns="http://www.w3.org/2000/svg" width="1200" height="284" style="background: #fafafa; font-family: 'Comic Sans MS', 'Chalkboard SE', cursive, sans-serif;">
<defs><marker id="arr" markerWidth="10" markerHeight="7" refX="10" refY="3.5" orient="auto" markerUnits="strokeWidth"><polygon points="0 0, 10 3.5, 0 7" fill="#1a237e"/></marker></defs>
<text x="600.0" y="32" text-anchor="middle" font-size="20" font-weight="bold" fill="#333">torch</text>
<rect x="525.0" y="50.0" width="150" height="32" rx="2" ry="2" fill="#2e7d32" stroke="#222" stroke-width="1"/>
<text x="600.0" y="67.0" text-anchor="middle" dominant-baseline="middle" font-size="10" fill="#fff">torch</text>
<rect x="130.5" y="86.0" width="38" height="32" rx="2" ry="2" fill="#2e7d32" stroke="#222" stroke-width="1"/>
<text x="149.5" y="103.0" text-anchor="middle" dominant-baseline="middle" font-size="6" fill="#fff">filelock</text>
<rect x="171.5" y="86.0" width="38" height="32" rx="2" ry="2" fill="#2e7d32" stroke="#222" stroke-width="1"/>
<text x="190.5" y="99.3" text-anchor="middle" dominant-baseline="middle" font-size="6" fill="#fff">typing-</text>
<text x="190.5" y="105.9" text-anchor="middle" dominant-baseline="middle" font-size="6" fill="#fff">extensions</text>
<rect x="212.5" y="86.0" width="38" height="32" rx="2" ry="2" fill="#2e7d32" stroke="#222" stroke-width="1"/>
<text x="231.5" y="99.3" text-anchor="middle" dominant-baseline="middle" font-size="6" fill="#fff">setup</text>
<text x="231.5" y="105.9" text-anchor="middle" dominant-baseline="middle" font-size="6" fill="#fff">tools</text>
<rect x="253.5" y="86.0" width="63" height="32" rx="2" ry="2" fill="#2e7d32" stroke="#222" stroke-width="1"/>
<text x="285.0" y="103.0" text-anchor="middle" dominant-baseline="middle" font-size="7" fill="#fff">sympy</text>
<rect x="319.5" y="86.0" width="47" height="32" rx="2" ry="2" fill="#2e7d32" stroke="#222" stroke-width="1"/>
<text x="343.0" y="103.0" text-anchor="middle" dominant-baseline="middle" font-size="6" fill="#fff">networkx</text>
<rect x="369.5" y="86.0" width="38" height="32" rx="2" ry="2" fill="#2e7d32" stroke="#222" stroke-width="1"/>
<text x="388.5" y="103.0" text-anchor="middle" dominant-baseline="middle" font-size="6" fill="#fff">jinja2</text>
<rect x="410.5" y="86.0" width="42" height="32" rx="2" ry="2" fill="#2e7d32" stroke="#222" stroke-width="1"/>
<text x="431.5" y="103.0" text-anchor="middle" dominant-baseline="middle" font-size="6" fill="#fff">fsspec</text>
<rect x="455.5" y="86.0" width="43" height="32" rx="2" ry="2" fill="#2e7d32" stroke="#222" stroke-width="1"/>
<text x="477.0" y="99.3" text-anchor="middle" dominant-baseline="middle" font-size="6" fill="#fff">cuda-</text>
<text x="477.0" y="105.9" text-anchor="middle" dominant-baseline="middle" font-size="6" fill="#fff">bindings</text>
<rect x="501.5" y="86.0" width="38" height="32" rx="2" ry="2" fill="#9e9e9e" stroke="#222" stroke-width="1"/>
<text x="520.5" y="99.3" text-anchor="middle" dominant-baseline="middle" font-size="6" fill="#fff">nvidia-cuda-</text>
<text x="520.5" y="105.9" text-anchor="middle" dominant-baseline="middle" font-size="6" fill="#fff">nvrtc-cu12</text>
<rect x="542.5" y="86.0" width="38" height="32" rx="2" ry="2" fill="#9e9e9e" stroke="#222" stroke-width="1"/>
<text x="561.5" y="99.3" text-anchor="middle" dominant-baseline="middle" font-size="6" fill="#fff">nvidia-cuda-</text>
<text x="561.5" y="105.9" text-anchor="middle" dominant-baseline="middle" font-size="6" fill="#fff">runtime-cu12</text>
<rect x="583.5" y="86.0" width="38" height="32" rx="2" ry="2" fill="#9e9e9e" stroke="#222" stroke-width="1"/>
<text x="602.5" y="99.3" text-anchor="middle" dominant-baseline="middle" font-size="6" fill="#fff">nvidia-cuda-</text>
<text x="602.5" y="105.9" text-anchor="middle" dominant-baseline="middle" font-size="6" fill="#fff">cupti-cu12</text>
<rect x="624.5" y="86.0" width="38" height="32" rx="2" ry="2" fill="#9e9e9e" stroke="#222" stroke-width="1"/>
<text x="643.5" y="99.3" text-anchor="middle" dominant-baseline="middle" font-size="6" fill="#fff">nvidia-</text>
<text x="643.5" y="105.9" text-anchor="middle" dominant-baseline="middle" font-size="6" fill="#fff">cudnn-cu12</text>
<rect x="665.5" y="86.0" width="38" height="32" rx="2" ry="2" fill="#9e9e9e" stroke="#222" stroke-width="1"/>
<text x="684.5" y="99.3" text-anchor="middle" dominant-baseline="middle" font-size="6" fill="#fff">nvidia-</text>
<text x="684.5" y="105.9" text-anchor="middle" dominant-baseline="middle" font-size="6" fill="#fff">cufft-cu12</text>
<rect x="706.5" y="86.0" width="38" height="32" rx="2" ry="2" fill="#9e9e9e" stroke="#222" stroke-width="1"/>
<text x="725.5" y="99.3" text-anchor="middle" dominant-baseline="middle" font-size="6" fill="#fff">nvidia-</text>
<text x="725.5" y="105.9" text-anchor="middle" dominant-baseline="middle" font-size="6" fill="#fff">curand-cu12</text>
<rect x="747.5" y="86.0" width="38" height="32" rx="2" ry="2" fill="#9e9e9e" stroke="#222" stroke-width="1"/>
<text x="766.5" y="99.3" text-anchor="middle" dominant-baseline="middle" font-size="6" fill="#fff">nvidia-</text>
<text x="766.5" y="105.9" text-anchor="middle" dominant-baseline="middle" font-size="6" fill="#fff">cusolver-cu12</text>
<rect x="788.5" y="86.0" width="38" height="32" rx="2" ry="2" fill="#9e9e9e" stroke="#222" stroke-width="1"/>
<text x="807.5" y="99.3" text-anchor="middle" dominant-baseline="middle" font-size="6" fill="#fff">nvidia-</text>
<text x="807.5" y="105.9" text-anchor="middle" dominant-baseline="middle" font-size="6" fill="#fff">cusparselt-cu12</text>
<rect x="829.5" y="86.0" width="38" height="32" rx="2" ry="2" fill="#9e9e9e" stroke="#222" stroke-width="1"/>
<text x="848.5" y="99.3" text-anchor="middle" dominant-baseline="middle" font-size="6" fill="#fff">nvidia-</text>
<text x="848.5" y="105.9" text-anchor="middle" dominant-baseline="middle" font-size="6" fill="#fff">nccl-cu12</text>
<rect x="870.5" y="86.0" width="38" height="32" rx="2" ry="2" fill="#9e9e9e" stroke="#222" stroke-width="1"/>
<text x="889.5" y="99.3" text-anchor="middle" dominant-baseline="middle" font-size="6" fill="#fff">nvidia-</text>
<text x="889.5" y="105.9" text-anchor="middle" dominant-baseline="middle" font-size="6" fill="#fff">nvshmem-cu12</text>
<rect x="911.5" y="86.0" width="38" height="32" rx="2" ry="2" fill="#9e9e9e" stroke="#222" stroke-width="1"/>
<text x="930.5" y="99.3" text-anchor="middle" dominant-baseline="middle" font-size="6" fill="#fff">nvidia-</text>
<text x="930.5" y="105.9" text-anchor="middle" dominant-baseline="middle" font-size="6" fill="#fff">nvtx-cu12</text>
<rect x="952.5" y="86.0" width="38" height="32" rx="2" ry="2" fill="#9e9e9e" stroke="#222" stroke-width="1"/>
<text x="971.5" y="99.3" text-anchor="middle" dominant-baseline="middle" font-size="6" fill="#fff">nvidia-</text>
<text x="971.5" y="105.9" text-anchor="middle" dominant-baseline="middle" font-size="6" fill="#fff">cufile-cu12</text>
<rect x="993.5" y="86.0" width="76" height="32" rx="2" ry="2" fill="#2e7d32" stroke="#222" stroke-width="1"/>
<text x="1031.5" y="103.0" text-anchor="middle" dominant-baseline="middle" font-size="9" fill="#fff">triton</text>
<rect x="207.8" y="122.0" width="38" height="32" rx="2" ry="2" fill="#f57f17" stroke="#222" stroke-width="1"/>
<text x="226.8" y="139.0" text-anchor="middle" dominant-baseline="middle" font-size="6" fill="#fff">mpmath</text>
<rect x="311.2" y="122.0" width="38" height="32" rx="2" ry="2" fill="#9e9e9e" stroke="#222" stroke-width="1"/>
<text x="330.2" y="135.3" text-anchor="middle" dominant-baseline="middle" font-size="6" fill="#fff">Marku</text>
<text x="330.2" y="141.9" text-anchor="middle" dominant-baseline="middle" font-size="6" fill="#fff">pSafe</text>
<rect x="397.2" y="122.0" width="43" height="32" rx="2" ry="2" fill="#2e7d32" stroke="#222" stroke-width="1"/>
<text x="418.8" y="135.3" text-anchor="middle" dominant-baseline="middle" font-size="6" fill="#fff">cuda-</text>
<text x="418.8" y="141.9" text-anchor="middle" dominant-baseline="middle" font-size="6" fill="#fff">pathfinder</text>
<rect x="592.8" y="122.0" width="38" height="32" rx="2" ry="2" fill="#9e9e9e" stroke="#222" stroke-width="1"/>
<text x="611.8" y="135.3" text-anchor="middle" dominant-baseline="middle" font-size="6" fill="#fff">nvidia-</text>
<text x="611.8" y="141.9" text-anchor="middle" dominant-baseline="middle" font-size="6" fill="#fff">cublas-cu12</text>
<rect x="633.8" y="122.0" width="38" height="32" rx="2" ry="2" fill="#9e9e9e" stroke="#222" stroke-width="1"/>
<text x="652.8" y="135.3" text-anchor="middle" dominant-baseline="middle" font-size="6" fill="#fff">nvidia-</text>
<text x="652.8" y="141.9" text-anchor="middle" dominant-baseline="middle" font-size="6" fill="#fff">cusparse-cu12</text>
<rect x="812.2" y="122.0" width="38" height="32" rx="2" ry="2" fill="#9e9e9e" stroke="#222" stroke-width="1"/>
<text x="831.2" y="135.3" text-anchor="middle" dominant-baseline="middle" font-size="6" fill="#fff">nvidia-cuda-</text>
<text x="831.2" y="141.9" text-anchor="middle" dominant-baseline="middle" font-size="6" fill="#fff">cccl-cu12</text>
<rect x="954.2" y="122.0" width="38" height="32" rx="2" ry="2" fill="#2e7d32" stroke="#222" stroke-width="1"/>
<text x="973.2" y="135.3" text-anchor="middle" dominant-baseline="middle" font-size="6" fill="#fff">importlib-</text>
<text x="973.2" y="141.9" text-anchor="middle" dominant-baseline="middle" font-size="6" fill="#fff">metadata</text>
<rect x="432.3" y="158.0" width="38" height="32" rx="2" ry="2" fill="#9e9e9e" stroke="#222" stroke-width="1"/>
<text x="451.3" y="171.3" text-anchor="middle" dominant-baseline="middle" font-size="6" fill="#fff">nvidia-</text>
<text x="451.3" y="177.9" text-anchor="middle" dominant-baseline="middle" font-size="6" fill="#fff">nvjitlink-cu12</text>
<rect x="729.7" y="158.0" width="38" height="32" rx="2" ry="2" fill="#2e7d32" stroke="#222" stroke-width="1"/>
<text x="748.7" y="175.0" text-anchor="middle" dominant-baseline="middle" font-size="6" fill="#fff">zipp</text>
<line x1="247.5" y1="162.0" x2="367.5" y2="102.0" stroke="#1a237e" stroke-width="2.5" marker-end="url(#arr)"/>
<text x="600.0" y="214" text-anchor="middle" font-size="13" fill="#555" font-style="italic">“jinja2”: 19 years of code, 2 active maintainers, 28 commits/yr. 1 package depend on it.</text>
<text x="600.0" y="236" text-anchor="middle" font-size="9" fill="#bbb">generated by ossuary — inspired by xkcd.com/2347</text>
</svg>